<svg id="Active_Support-amico" data-name="Active Support-amico" xmlns="http://www.w3.org/2000/svg" xmlns:xlink="http://www.w3.org/1999/xlink" width="249.789" height="189.06" viewBox="0 0 249.789 189.06">
  <defs>
    <clipPath id="clip-path">
      <path id="Path_1030" data-name="Path 1030" d="M192.291,101.441l37.837-21.848c.677-.393,1.226-.072,1.226.708V138.43a2.715,2.715,0,0,1-1.226,2.125l-37.837,21.806c-.677.388-1.231.072-1.231-.708V103.577a2.694,2.694,0,0,1,1.231-2.136Z" transform="translate(-191.06 -79.425)" fill="none"/>
    </clipPath>
  </defs>
  <g id="freepik--Floor--inject-32" transform="translate(19.319 62.647)">
    <ellipse id="freepik--floor--inject-32-2" data-name="freepik--floor--inject-32" cx="115.235" cy="63.206" rx="115.235" ry="63.206" fill="#f5f5f5"/>
  </g>
  <g id="freepik--Shadow--inject-32" transform="translate(182.581 125.906)">
    <ellipse id="freepik--shadow--inject-32-2" data-name="freepik--shadow--inject-32" cx="26.574" cy="16.661" rx="26.574" ry="16.661" fill="#e6e6e6"/>
  </g>
  <g id="freepik--Plants--inject-32" transform="translate(0 75.502)">
    <path id="Path_960" data-name="Path 960" d="M49.247,247.549a38.923,38.923,0,0,0-2.627-11.175C44.277,230.6,39.794,224.8,34.628,223.71s-7.348,2.379-6.262,5.792c.941,2.937,4.778,5.378,7.695,7.943s8.356,8.791,9.866,14.753l2.916.321Z" transform="translate(-23.759 -223.507)" fill="#006f69"/>
    <g id="Group_259" data-name="Group 259" transform="translate(4.335)" opacity="0.15">
      <path id="Path_961" data-name="Path 961" d="M49.247,247.549a38.923,38.923,0,0,0-2.627-11.175C44.277,230.6,39.794,224.8,34.628,223.71s-7.348,2.379-6.262,5.792c.941,2.937,4.778,5.378,7.695,7.943s8.356,8.791,9.866,14.753l2.916.321Z" transform="translate(-28.094 -223.507)"/>
    </g>
    <path id="Path_962" data-name="Path 962" d="M50.289,252.319a.321.321,0,0,1-.321-.31c-.543-15.058-15.26-23.477-15.42-23.57a.326.326,0,0,1,.315-.569c.155.088,15.2,8.687,15.751,24.1a.326.326,0,0,1-.31.336Z" transform="translate(-26.802 -225.599)" fill="#fff"/>
    <path id="Path_963" data-name="Path 963" d="M47.52,293.1a11.588,11.588,0,0,1-7.715,1.091,7.239,7.239,0,0,1-4.049-1.944c-1.215-1.251-1.407-2.513-1.748-4.189a5.063,5.063,0,0,0-.7-1.975c-1.034-1.386-3.02-1.36-4.7-1.722a6.966,6.966,0,0,1-5.254-4.556,5.139,5.139,0,0,1,2.684-6.092l-2.767-1.774a12.274,12.274,0,0,1-2.368-1.81,4.1,4.1,0,0,1-1.195-2.663,3.921,3.921,0,0,1,2.436-3.382,8.274,8.274,0,0,1,4.328-.445,19.706,19.706,0,0,1,4.323,1.034,3.1,3.1,0,0,0,1.21.274,3.2,3.2,0,0,0,1.479-.683c3.165-2.068,8.32-1.929,10.016,2.012.248.579.4,1.2.667,1.769.983,2.125,3.749,1.484,5.538,2.477a4.53,4.53,0,0,1,2.068,3.242c.357,2.1-.228,4.494-.615,6.567s-.879,4-1.443,5.967c-.46,1.624-.967,3.232-1.5,4.83C48.1,291.461,47.851,292.894,47.52,293.1Z" transform="translate(-19.71 -242.552)" fill="#006f69"/>
    <path id="Path_964" data-name="Path 964" d="M52.69,290.556a29.01,29.01,0,0,0-7.555-11.376.326.326,0,0,0-.176-.166,38.123,38.123,0,0,0-3.066-2.586,15.689,15.689,0,0,1,1.034-8.248.323.323,0,1,0-.584-.274,16.03,16.03,0,0,0-1.195,7.974,49.894,49.894,0,0,0-14.241-7.136.331.331,0,0,0-.4.227.321.321,0,0,0,.228.4,48.675,48.675,0,0,1,16.9,9.308c-4.654-.812-10.2,1.432-10.456,1.551a.321.321,0,0,0,.124.62.341.341,0,0,0,.124,0c.062-.031,6.583-2.668,11.19-1.236A28.467,28.467,0,0,1,52.1,290.768a.321.321,0,0,0,.305.217h.109a.321.321,0,0,0,.181-.429Z" transform="translate(-22.987 -244.858)" fill="#fff"/>
  </g>
  <g id="freepik--Device--inject-32" transform="translate(23.694 0)">
    <g id="freepik--Laptop--inject-32">
      <path id="Path_965" data-name="Path 965" d="M73.69,269.882a4.819,4.819,0,0,0,2.255,3.739l63.061,36.394a4.964,4.964,0,0,0,4.5,0l86.269-49.808a4.23,4.23,0,0,0,0-7.472l-63.051-36.4a5,5,0,0,0-4.5,0l-86.28,49.818A4.815,4.815,0,0,0,73.69,269.882Z" transform="translate(-69.47 -128.246)" fill="#37474f"/>
      <path id="Path_966" data-name="Path 966" d="M141.226,352.849v4.866a4.591,4.591,0,0,1-2.249-.517L75.9,320.777a4.214,4.214,0,0,1-.228-7.327c-1.008.724-.931,1.784.228,2.451l63.087,36.4A4.6,4.6,0,0,0,141.226,352.849Z" transform="translate(-69.451 -175.403)" fill="#263238"/>
      <path id="Path_967" data-name="Path 967" d="M67.64,188.816A4.83,4.83,0,0,1,65.53,185V109.756a4.969,4.969,0,0,1,2.249-3.894l86.269-49.808a4.226,4.226,0,0,1,6.474,3.734v75.244a4.969,4.969,0,0,1-2.249,3.894L72,188.739A4.845,4.845,0,0,1,67.64,188.816Z" transform="translate(-65.53 -55.49)" fill="#455a64"/>
      <path id="Path_968" data-name="Path 968" d="M71.735,237.481a4.212,4.212,0,0,1-6.205-3.873V158.363a4.509,4.509,0,0,1,.662-2.213l4.22,2.43h0a4.6,4.6,0,0,0-.662,2.213v75.25C69.75,237.377,70.618,237.972,71.735,237.481Z" transform="translate(-65.53 -101.572)" fill="#263238"/>
      <path id="Path_969" data-name="Path 969" d="M73.69,114.71v75.239c0,1.438,1.034,2.017,2.255,1.3l86.269-49.813a4.969,4.969,0,0,0,2.249-3.894V62.3c0-1.432-1.008-2.017-2.249-1.3L75.945,110.811A4.969,4.969,0,0,0,73.69,114.71Z" transform="translate(-69.47 -58.004)" fill="#37474f"/>
      <path id="Path_970" data-name="Path 970" d="M77.177,268.764l63.061,36.4a5,5,0,0,0,4.5,0l86.269-49.808c1.246-.719,1.246-1.882,0-2.586l-63.051-36.4a5,5,0,0,0-4.5,0l-86.279,49.8C75.931,266.881,75.931,268.045,77.177,268.764Z" transform="translate(-70.703 -128.266)" fill="#455a64"/>
      <path id="Path_971" data-name="Path 971" d="M79.125,120.683,162.3,72.669c.745-.429,1.35-.078,1.35.781v65.156a2.989,2.989,0,0,1-1.35,2.337L79.125,188.93c-.75.429-1.355.083-1.355-.781V122.994A2.968,2.968,0,0,1,79.125,120.683Z" transform="translate(-71.441 -63.697)" fill="#fafafa"/>
      <path id="Path_972" data-name="Path 972" d="M91.77,270.986l80.079-46.24a2.467,2.467,0,0,1,2.249,0l4.1,2.363a.688.688,0,0,1,0,1.3L98.1,274.642a2.467,2.467,0,0,1-2.249,0l-4.085-2.358a.688.688,0,0,1,0-1.3Z" transform="translate(-77.979 -133.895)" fill="#37474f"/>
      <path id="Path_973" data-name="Path 973" d="M112.173,282.785l80.079-46.235a2.5,2.5,0,0,1,2.249,0L219.695,251.1a.688.688,0,0,1,0,1.3l-79.986,46.167a2.493,2.493,0,0,1-2.255,0l-25.276-14.479a.683.683,0,0,1-.005-1.3Z" transform="translate(-87.827 -138.14)" fill="#263238"/>
      <path id="Path_974" data-name="Path 974" d="M186,259.194l2.5-1.443c.109-.062.1-.166,0-.233l-2.9-1.675a.434.434,0,0,0-.4,0l-2.508,1.448c-.109.057-.1.16,0,.227l2.9,1.675A.445.445,0,0,0,186,259.194Zm-4.949-5.75-2.513,1.458c-.109.062-.1.166,0,.233l2.9,1.67a.445.445,0,0,0,.4,0l2.508-1.448a.127.127,0,0,0,0-.233l-2.9-1.67a.434.434,0,0,0-.393,0Zm-8.1,4.716-4.24,2.446c-.109.062-.1.166,0,.233l2.9,1.675a.46.46,0,0,0,.4,0l4.24-2.446c.109-.062.1-.165,0-.233l-2.88-1.675A.445.445,0,0,0,172.953,258.16Zm4.437-2.586-2.508,1.448a.127.127,0,0,0,0,.233l2.9,1.675a.45.45,0,0,0,.4,0l2.508-1.448a.123.123,0,0,0,0-.227l-2.9-1.681A.434.434,0,0,0,177.39,255.574Zm-9.825,5.688-2.508,1.443a.127.127,0,0,0,0,.233l2.9,1.676a.434.434,0,0,0,.4,0l2.508-1.448c.1-.057.1-.16,0-.228l-2.911-1.675a.434.434,0,0,0-.4,0Zm-3.666,2.115-2.5,1.448c-.109.057-.1.16,0,.227l2.9,1.675a.45.45,0,0,0,.4,0l2.508-1.448c.109-.062.1-.165,0-.233l-2.9-1.675a.445.445,0,0,0-.419-.005Zm11.407,6.805,2.508-1.448a.127.127,0,0,0,0-.233l-2.9-1.67a.434.434,0,0,0-.4,0l-2.508,1.448c-.109.062-.1.165,0,.233l2.9,1.67a.444.444,0,0,0,.393-.01ZM171.64,272.3l2.508-1.448c.109-.062.1-.166,0-.233l-2.9-1.67a.445.445,0,0,0-.4,0l-2.508,1.448a.127.127,0,0,0,0,.233l2.9,1.675a.45.45,0,0,0,.388-.015Zm-3.666,2.115,2.508-1.448a.121.121,0,0,0,0-.228l-2.9-1.675a.434.434,0,0,0-.4,0l-2.508,1.448c-.109.062-.1.165,0,.233l2.9,1.675a.45.45,0,0,0,.383-.016Zm-3.661,2.115,2.508-1.448c.1-.057.1-.16,0-.228l-2.927-1.7a.434.434,0,0,0-.4,0l-2.508,1.443c-.109.062-.1.166,0,.233l2.9,1.675a.444.444,0,0,0,.419.01Zm18.037-15.193,2.508-1.448a.127.127,0,0,0,0-.233l-2.9-1.675a.45.45,0,0,0-.4,0l-2.508,1.448a.123.123,0,0,0,0,.228l2.9,1.675a.45.45,0,0,0,.388-.005Zm-3.382,6.722,5.6-3.232c.109-.062.1-.165,0-.228l-7.053-4.064a.445.445,0,0,0-.4,0l-2.891,1.67c-.109.062-.1.165,0,.233l3.723,2.151c.119.067.124.171,0,.228l-2.311,1.339c-.109.062-.1.166,0,.233l2.9,1.67a.435.435,0,0,0,.429,0Zm-18.73-2.586-2.508,1.448c-.109.062-.1.165,0,.228l2.9,1.675a.444.444,0,0,0,.4,0l2.5-1.448c.109-.062.1-.166,0-.233l-2.9-1.675a.45.45,0,0,0-.4.015Zm-3.666,2.115-2.508,1.448a.127.127,0,0,0,0,.233l2.9,1.67a.434.434,0,0,0,.4,0l2.508-1.448a.127.127,0,0,0,0-.233l-2.9-1.67a.435.435,0,0,0-.409.01ZM138.26,291.312a.45.45,0,0,0,.4,0l2.508-1.448a.121.121,0,0,0,0-.228l-2.9-1.675a.46.46,0,0,0-.4,0l-2.5,1.448c-.109.062-.1.166,0,.233Zm-11.014-6.779-2.508,1.448a.127.127,0,0,0,0,.233l2.9,1.67a.434.434,0,0,0,.4,0l2.508-1.448a.127.127,0,0,0,0-.233l-2.9-1.67A.434.434,0,0,0,127.246,284.532Zm5.9,4.964a.45.45,0,0,0,.4,0l2.508-1.448a.127.127,0,0,0,0-.233l-2.9-1.675a.435.435,0,0,0-.4,0l-2.508,1.448c-.1.062-.1.16,0,.228Zm11.573,3.1,2.508-1.448c.109-.057.1-.16,0-.227l-2.9-1.675a.445.445,0,0,0-.4,0l-2.508,1.443a.127.127,0,0,0,0,.233l2.9,1.675a.434.434,0,0,0,.4.005Zm-4.064,2.11a.46.46,0,0,0,.4,0l2.5-1.448c.109-.062.1-.166,0-.233l-2.9-1.675a.434.434,0,0,0-.4,0l-2.518,1.453c-.109.057-.1.16,0,.227ZM130.912,282.4,128.4,283.85a.121.121,0,0,0,0,.227l2.9,1.675a.433.433,0,0,0,.4,0l2.508-1.448c.109-.062.1-.165,0-.233l-2.9-1.675a.449.449,0,0,0-.393.01Zm18.321-10.58-2.508,1.448c-.109.062-.1.166,0,.233l2.9,1.67a.444.444,0,0,0,.4,0l2.508-1.448a.127.127,0,0,0,0-.233l-2.9-1.67a.434.434,0,0,0-.4.005Zm-14.645,8.47-2.508,1.448a.123.123,0,0,0,0,.227l2.9,1.675a.434.434,0,0,0,.4,0l2.508-1.448c.109-.062.1-.166,0-.233l-2.9-1.675A.46.46,0,0,0,134.589,280.292Zm18.321-10.58-2.5,1.448c-.109.062-.1.166,0,.233l2.9,1.67a.434.434,0,0,0,.4,0l2.508-1.448c.109-.062.1-.166,0-.233l-2.9-1.67a.445.445,0,0,0-.424,0Zm-7.327,4.23-2.508,1.448a.127.127,0,0,0,0,.233l2.891,1.67a.449.449,0,0,0,.4,0l2.508-1.448c.109-.062.1-.165,0-.228l-2.906-1.665a.435.435,0,0,0-.4-.01Zm-3.661,2.115-2.508,1.448c-.109.062-.1.165,0,.233l2.9,1.676a.435.435,0,0,0,.4,0l2.508-1.448a.121.121,0,0,0,0-.228l-2.9-1.675a.45.45,0,0,0-.414-.005Zm-3.666,2.12-2.508,1.448c-.109.057-.1.16,0,.227l2.9,1.676a.445.445,0,0,0,.4,0l2.508-1.443a.127.127,0,0,0,0-.233l-2.9-1.675a.434.434,0,0,0-.414,0Zm18.73,2.586,2.508-1.448c.109-.062.1-.166,0-.233l-2.9-1.675a.45.45,0,0,0-.4,0l-2.508,1.448a.121.121,0,0,0,0,.227l2.9,1.676a.435.435,0,0,0,.383-.005Zm32.185-31.973-2.508,1.448a.123.123,0,0,0,0,.228l2.9,1.675a.435.435,0,0,0,.4,0l2.508-1.448c.109-.062.1-.166,0-.233l-2.9-1.675a.46.46,0,0,0-.419-.005Zm-4.437,2.56-2.5,1.448c-.109.062-.1.165,0,.233l2.9,1.67a.435.435,0,0,0,.4,0l2.508-1.448c.109-.062.1-.166,0-.233l-2.9-1.67a.445.445,0,0,0-.424-.01Zm8.1-4.654-2.508,1.448c-.109.057-.1.16,0,.228l2.9,1.675a.46.46,0,0,0,.4,0l2.508-1.448a.127.127,0,0,0,0-.233l-2.9-1.675a.434.434,0,0,0-.414-.026Zm-18.968,19.557,2.508-1.448a.127.127,0,0,0,0-.233l-2.9-1.67a.434.434,0,0,0-.4,0l-2.508,1.448a.127.127,0,0,0,0,.233l2.9,1.67a.434.434,0,0,0,.383-.031ZM196.9,244.586a.444.444,0,0,0-.4,0l-2.5,1.443c-.109.062-.1.165,0,.233l2.9,1.675a.434.434,0,0,0,.4,0l2.508-1.448c.109-.057.1-.16,0-.228Zm-36.249,34.077,2.508-1.443c.109-.062.1-.165,0-.233l-2.9-1.675a.444.444,0,0,0-.4,0l-2.518,1.412c-.1.057-.1.16,0,.228l2.9,1.675a.435.435,0,0,0,.393.005Zm44.937-25.943,2.508-1.448c.109-.062.1-.165,0-.228l-2.9-1.675a.445.445,0,0,0-.4,0l-2.5,1.448c-.109.062-.1.166,0,.233l2.9,1.675a.45.45,0,0,0,.377-.036Zm-7.8-.274L200.293,251a.127.127,0,0,0,0-.233l-2.9-1.67a.434.434,0,0,0-.4,0l-2.508,1.448c-.109.062-.1.165,0,.233l2.9,1.67a.445.445,0,0,0,.388-.031Zm3.258-5.466a.445.445,0,0,0-.4,0l-2.5,1.448c-.109.062-.1.165,0,.233l2.9,1.67a.435.435,0,0,0,.4,0l2.508-1.448c.109-.062.1-.165,0-.233Zm.77-.45,7.043,4.07a.45.45,0,0,0,.4,0l2.508-1.448a.123.123,0,0,0,0-.228l-7.043-4.07a.45.45,0,0,0-.4,0l-2.508,1.448c-.134.031-.129.134,0,.2Zm-8.5,4.654-2.508,1.448a.127.127,0,0,0,0,.233l2.9,1.67a.434.434,0,0,0,.4,0l2.508-1.448c.109-.062.1-.166,0-.233l-2.9-1.67a.445.445,0,0,0-.419-.016ZM165.719,267.09l-2.508,1.448c-.109.062-.1.166,0,.233l2.9,1.675a.444.444,0,0,0,.4,0l2.5-1.448c.109-.062.1-.16,0-.228l-2.88-1.67A.45.45,0,0,0,165.719,267.09ZM201.508,254.8a.444.444,0,0,0,.4,0l2.508-1.448c.1-.057.1-.16,0-.227l-2.916-1.686a.45.45,0,0,0-.4,0l-2.508,1.448c-.109.062-.1.165,0,.233ZM169.38,264.975l-2.5,1.448c-.109.062-.1.165,0,.233l2.9,1.675a.45.45,0,0,0,.4,0l2.508-1.448a.121.121,0,0,0,0-.228l-2.9-1.675A.445.445,0,0,0,169.38,264.975Zm-27.464,24.211a.451.451,0,0,0,.4,0l2.508-1.448a.123.123,0,0,0,0-.227l-2.9-1.675a.435.435,0,0,0-.4,0l-2.508,1.448a.127.127,0,0,0,0,.233Zm-5.512-5.171-2.508,1.443c-.109.062-.1.166,0,.233l2.9,1.676a.445.445,0,0,0,.4,0l2.5-1.448c.109-.057.1-.16,0-.228l-2.9-1.675A.434.434,0,0,0,136.4,284.015Zm9.561,3.1,2.5-1.448c.109-.062.1-.166,0-.233l-2.9-1.67a.434.434,0,0,0-.4,0l-2.508,1.448c-.109.062-.1.166,0,.233l2.9,1.67A.445.445,0,0,0,145.965,287.118ZM149.626,285l2.508-1.448c.109-.062.1-.166,0-.233l-2.9-1.67a.445.445,0,0,0-.4,0l-2.508,1.448a.127.127,0,0,0,0,.233l2.9,1.67a.434.434,0,0,0,.414-.021Zm3.666-2.115,2.508-1.448a.127.127,0,0,0,0-.233l-2.9-1.675a.45.45,0,0,0-.4,0l-2.508,1.448c-.109.062-.1.165,0,.228l2.9,1.675a.444.444,0,0,0,.419-.015Zm-13.243-.967-2.508,1.448a.127.127,0,0,0,0,.233l2.9,1.675a.45.45,0,0,0,.4,0l2.508-1.448c.109-.062.1-.166,0-.228l-2.9-1.675a.46.46,0,0,0-.388-.026Zm3.666-2.115-2.508,1.448c-.109.062-.1.165,0,.233l2.9,1.676a.461.461,0,0,0,.4,0l2.508-1.448a.123.123,0,0,0,0-.228l-2.9-1.675a.434.434,0,0,0-.383-.026Zm14.66-8.481-2.5,1.448a.121.121,0,0,0,0,.227l2.9,1.675a.435.435,0,0,0,.4,0l2.508-1.448c.109-.062.1-.166,0-.233l-2.9-1.675A.46.46,0,0,0,158.376,271.326Zm-3.661,2.115-2.508,1.448c-.109.062-.1.165,0,.228l2.9,1.675a.444.444,0,0,0,.4,0l2.508-1.448a.127.127,0,0,0,0-.233l-2.9-1.675a.449.449,0,0,0-.388.005Zm7.327-4.23-2.508,1.448c-.1.057-.1.16,0,.227l2.9,1.675a.435.435,0,0,0,.4,0l2.508-1.443a.127.127,0,0,0,0-.233l-2.9-1.675a.434.434,0,0,0-.388,0Zm-14.655,8.46-2.508,1.448c-.109.062-.1.165,0,.233l2.9,1.67a.434.434,0,0,0,.4,0l2.508-1.448c.109-.062.1-.166,0-.233l-2.9-1.67a.434.434,0,0,0-.388,0Zm3.661-2.115L148.54,277a.127.127,0,0,0,0,.233l2.9,1.67a.434.434,0,0,0,.4,0l2.508-1.448c.109-.062.1-.166,0-.233l-2.9-1.67a.434.434,0,0,0-.388,0Zm-2.674,14.934,2.508-1.448a.123.123,0,0,0,0-.228l-2.906-1.7a.434.434,0,0,0-.4,0l-2.508,1.448c-.109.062-.1.165,0,.233l2.9,1.675a.46.46,0,0,0,.419.016Zm-21.506-2.172-2.9-1.67a.445.445,0,0,0-.4,0l-2.508,1.448a.127.127,0,0,0,0,.233l2.9,1.67a.434.434,0,0,0,.4,0l2.508-1.448c.134-.062.124-.165.01-.233Zm5.492,1.613-2.9-1.675a.46.46,0,0,0-.4,0l-3.858,2.223a.127.127,0,0,0,0,.233l2.9,1.675a.434.434,0,0,0,.4,0l3.858-2.224c.16-.062.124-.165.01-.233Zm-9.939-4.845-2.9-1.675a.445.445,0,0,0-.4,0l-3.1,1.784a.123.123,0,0,0,0,.228l2.9,1.675a.434.434,0,0,0,.4,0l3.1-1.784c.134-.062.124-.165.01-.227Zm2.368-1.37a.434.434,0,0,0,.4,0l2.508-1.448a.127.127,0,0,0,0-.233l-2.906-1.639a.434.434,0,0,0-.4,0l-2.508,1.448a.127.127,0,0,0,0,.233Zm12.69,8.057-2.891-1.681a.434.434,0,0,0-.4,0l-4.825,2.782a.127.127,0,0,0,0,.233l2.9,1.67a.435.435,0,0,0,.4,0l4.819-2.782C137.6,291.937,137.593,291.834,137.479,291.772Zm2.4,3.392-2.9-1.675a.45.45,0,0,0-.4,0l-3.1,1.779a.127.127,0,0,0,0,.233l2.9,1.675a.45.45,0,0,0,.4,0l3.1-1.779c.119-.067.114-.171,0-.238Zm12.157-27.179a.46.46,0,0,0,.4,0l2.508-1.448a.123.123,0,0,0,0-.227l-2.9-1.675a.434.434,0,0,0-.4,0l-2.508,1.448c-.109.062-.1.165,0,.233Zm-7.327,4.23a.445.445,0,0,0,.4,0l2.5-1.448c.109-.057.1-.16,0-.228l-2.9-1.675a.45.45,0,0,0-.4,0l-2.492,1.448c-.109.062-.1.166,0,.233Zm-16.253,9.38a.444.444,0,0,0,.4,0l2.5-1.448c.109-.062.1-.165,0-.233l-2.9-1.67a.434.434,0,0,0-.4,0l-2.508,1.448c-.109.062-.1.166,0,.233Zm19.919-11.5a.45.45,0,0,0,.4,0l2.508-1.448c.109-.062.1-.165,0-.228l-2.9-1.675a.445.445,0,0,0-.4,0l-2.508,1.448a.127.127,0,0,0,0,.233Zm-7.327,4.23a.434.434,0,0,0,.4,0l2.508-1.443a.127.127,0,0,0,0-.233l-2.9-1.675a.434.434,0,0,0-.4,0l-2.508,1.448c-.1.057-.1.16,0,.228Zm.848,21.1a.445.445,0,0,0-.4,0l-3.858,2.229a.123.123,0,0,0,0,.227l2.9,1.675a.434.434,0,0,0,.4,0l3.858-2.229a.127.127,0,0,0,0-.233Zm-6.107-18.063a.45.45,0,0,0,.4,0l2.508-1.448a.127.127,0,0,0,0-.233l-2.9-1.675a.45.45,0,0,0-.4,0l-2.508,1.448a.123.123,0,0,0,0,.228Zm-3.666,2.115a.435.435,0,0,0,.4,0l2.508-1.448c.109-.062.1-.165,0-.233l-2.9-1.675a.46.46,0,0,0-.4,0l-2.5,1.448a.121.121,0,0,0,0,.228Zm77.659-23.27a.434.434,0,0,0-.4,0l-6.174,3.563a.127.127,0,0,0,0,.233l2.9,1.675a.45.45,0,0,0,.4,0l6.185-3.522a.121.121,0,0,0,0-.228Zm-8.1,4.654a.45.45,0,0,0-.4,0l-2.508,1.448a.123.123,0,0,0,0,.227l2.9,1.675a.45.45,0,0,0,.4,0l2.508-1.448a.127.127,0,0,0,0-.233Zm-49.642,27.464,2.508-1.448a.121.121,0,0,0,0-.227l-2.9-1.6a.435.435,0,0,0-.4,0l-2.508,1.448c-.109.062-.1.165,0,.233l2.9,1.676a.45.45,0,0,0,.4-.031Zm42.31-23.228a.434.434,0,0,0-.4,0l-2.508,1.448c-.109.062-.1.165,0,.233l2.9,1.67a.445.445,0,0,0,.4,0L197.252,267a.127.127,0,0,0,0-.233Zm19.1-11.025a.445.445,0,0,0-.4,0l-2.508,1.448a.127.127,0,0,0,0,.233l2.9,1.67a.434.434,0,0,0,.4,0l2.508-1.448c.109-.062.1-.165,0-.233Zm6.562-.445-7.043-4.064a.434.434,0,0,0-.4,0l-2.508,1.448c-.109.057-.1.16,0,.228l7.038,4.064a.444.444,0,0,0,.4,0l2.508-1.448c.124-.01.119-.114.005-.181ZM180.658,273a.45.45,0,0,0-.4,0l-3.1,1.779c-.109.062-.1.165,0,.233l2.9,1.675a.46.46,0,0,0,.4,0l3.1-1.779a.127.127,0,0,0,0-.233Zm9.261-5.3a.434.434,0,0,0-.4,0l-3.858,2.229a.127.127,0,0,0,0,.233l2.9,1.67a.434.434,0,0,0,.4,0l3.858-2.229a.123.123,0,0,0,0-.228ZM172.177,277.95a.434.434,0,0,0-.4,0l-20.638,11.893c-.109.062-.1.165,0,.233l2.9,1.675a.46.46,0,0,0,.4,0l20.633-11.893a.121.121,0,0,0,0-.228Zm-21.791,12.581a.445.445,0,0,0-.4,0l-3.1,1.779a.127.127,0,0,0,0,.233l2.9,1.67a.434.434,0,0,0,.4,0l3.1-1.784c.109-.057.1-.16,0-.228ZM176.423,275.5a.445.445,0,0,0-.4,0l-3.1,1.779c-.109.062-.1.165,0,.233l2.9,1.67a.434.434,0,0,0,.4,0l3.1-1.784c.109-.057.1-.16,0-.227Zm-30.282,17.483a.434.434,0,0,0-.4,0l-3.1,1.784c-.109.062-.1.165,0,.233l2.9,1.67a.445.445,0,0,0,.4,0l3.1-1.784a.121.121,0,0,0,0-.228Zm38.783-22.38a.445.445,0,0,0-.4,0l-3.1,1.784a.121.121,0,0,0,0,.227l2.9,1.675a.449.449,0,0,0,.4,0l3.1-1.784c.109-.062.1-.165,0-.233Zm13.114-7.576a.46.46,0,0,0-.4,0l-2.5,1.448a.121.121,0,0,0,0,.228l2.9,1.675a.435.435,0,0,0,.4,0l2.508-1.448c.109-.062.1-.165,0-.233Zm8.031-5.828,2.5-1.448c.109-.062.1-.166,0-.233l-2.9-1.67a.434.434,0,0,0-.4,0l-2.508,1.448c-.109.062-.1.165,0,.233l2.9,1.67a.445.445,0,0,0,.393,0Zm-16.387-.109,2.508-1.448c.109-.057.1-.16,0-.228l-2.9-1.675a.46.46,0,0,0-.4,0l-2.508,1.448a.127.127,0,0,0,0,.233l2.9,1.675a.434.434,0,0,0,.383-.005Zm-8.274,14.36,7.327-4.23a.127.127,0,0,0,0-.233l-2.953-1.675a.45.45,0,0,0-.4,0l-7.333,4.225c-.109.062-.1.166,0,.233l2.9,1.67a.445.445,0,0,0,.419.01ZM202.03,259.3a.435.435,0,0,0,.4,0l2.508-1.448a.127.127,0,0,0,0-.233l-2.9-1.67a.434.434,0,0,0-.4,0l-2.508,1.448a.127.127,0,0,0,0,.233Zm-3.744-2.379,2.508-1.448a.127.127,0,0,0,0-.233l-2.9-1.675a.435.435,0,0,0-.4,0l-2.508,1.448c-.1.057-.1.16,0,.227l2.9,1.675a.45.45,0,0,0,.357.005Zm-20.545,16.641,2.508-1.448a.123.123,0,0,0,0-.228l-2.9-1.675a.434.434,0,0,0-.4,0l-2.508,1.448a.127.127,0,0,0,0,.233l2.9,1.675a.45.45,0,0,0,.357-.005Zm16.186-9.582a.434.434,0,0,0,.4,0l2.508-1.448a.121.121,0,0,0,0-.227l-2.9-1.676a.45.45,0,0,0-.4,0l-2.508,1.448c-.109.062-.1.165,0,.233ZM159.42,284.15l2.508-1.448a.127.127,0,0,0,0-.233l-2.9-1.67a.434.434,0,0,0-.4,0l-2.508,1.448c-.109.062-.1.165,0,.233l2.9,1.67a.445.445,0,0,0,.362-.005Zm3.661-2.115,2.508-1.448c.109-.062.1-.165,0-.233l-2.9-1.675a.45.45,0,0,0-.4,0l-2.508,1.448a.121.121,0,0,0,0,.228l2.9,1.675a.434.434,0,0,0,.341,0Zm-7.327,4.23,2.508-1.448c.109-.062.1-.165,0-.233l-2.9-1.67a.444.444,0,0,0-.4,0l-2.508,1.448a.127.127,0,0,0,0,.233l2.9,1.67a.435.435,0,0,0,.357-.005Zm14.619-8.455,2.5-1.443c.109-.062.1-.166,0-.233l-2.9-1.675a.435.435,0,0,0-.4,0l-2.508,1.448c-.109.057-.1.16,0,.227l2.9,1.675A.445.445,0,0,0,170.373,277.81Zm-3.666,2.12,2.508-1.448a.127.127,0,0,0,0-.233l-2.9-1.675a.45.45,0,0,0-.4,0l-2.508,1.448a.123.123,0,0,0,0,.227l2.9,1.675a.45.45,0,0,0,.4-.01Zm7.327-4.235,2.508-1.448c.109-.062.1-.165,0-.227l-2.9-1.675a.46.46,0,0,0-.4,0l-2.5,1.448c-.109.062-.1.166,0,.233l2.9,1.675a.451.451,0,0,0,.393-.021ZM190.8,244.4a.445.445,0,0,0,.4,0l2.508-1.448c.1-.057.1-.16,0-.228l-.77-.445a.444.444,0,0,0-.4,0l-2.508,1.448a.127.127,0,0,0,0,.233Zm-18.026,11.635a.434.434,0,0,0,.4,0l2.508-1.448a.127.127,0,0,0,0-.233l-2.9-1.67a.435.435,0,0,0-.4,0l-2.508,1.448a.127.127,0,0,0,0,.233Zm7.322-4.245a.434.434,0,0,0,.4,0L183,250.341c.109-.062.1-.165,0-.233l-2.9-1.675a.46.46,0,0,0-.4,0l-2.508,1.448a.123.123,0,0,0,0,.228ZM168.289,258.6a.461.461,0,0,0,.4,0l2.508-1.448a.127.127,0,0,0,0-.233l-2.9-1.675a.45.45,0,0,0-.4,0l-2.508,1.448c-.109.057-.1.16,0,.228Zm8.139-4.7a.444.444,0,0,0,.4,0l2.5-1.448c.109-.062.1-.166,0-.233l-2.9-1.67a.434.434,0,0,0-.4,0L173.527,252c-.109.062-.1.166,0,.233Zm-15.467,8.91a.434.434,0,0,0,.4,0l2.508-1.448c.109-.062.1-.165,0-.233l-2.906-1.639a.434.434,0,0,0-.4,0l-2.508,1.448c-.109.062-.1.165,0,.233Zm3.671-2.068a.434.434,0,0,0,.4,0l2.508-1.448c.109-.062.1-.165,0-.233l-2.9-1.675a.45.45,0,0,0-.4,0l-2.508,1.448a.123.123,0,0,0,0,.228Zm18.838-12.105a.435.435,0,0,0,.4,0l2.508-1.448c.109-.062.1-.165,0-.233l-.77-.445a.434.434,0,0,0-.4,0l-2.508,1.448c-.109.062-.1.166,0,.233Zm10.994-6.345a.45.45,0,0,0,.4,0l2.508-1.448a.121.121,0,0,0,0-.228l-.77-.445a.435.435,0,0,0-.4,0l-2.508,1.448c-.109.062-.1.165,0,.233Zm6.092,3.516a.45.45,0,0,0,.4,0l2.508-1.448c.109-.062.1-.166,0-.228l-2.9-1.675a.435.435,0,0,0-.4,0l-2.508,1.448a.127.127,0,0,0,0,.233Zm9.158,9.308,2.508-1.448c.109-.062.1-.165,0-.233l-2.9-1.675a.46.46,0,0,0-.4,0l-2.508,1.448a.123.123,0,0,0,0,.227l2.9,1.675a.434.434,0,0,0,.4-.031Zm-22.577-8.584a.45.45,0,0,0,.4,0l2.508-1.448a.127.127,0,0,0,0-.233l-.771-.445a.434.434,0,0,0-.4,0l-2.508,1.448c-.109.062-.1.165,0,.233ZM157.3,264.986a.444.444,0,0,0,.4,0l2.508-1.448a.127.127,0,0,0,0-.233l-2.9-1.67a.434.434,0,0,0-.4,0l-2.508,1.448c-.109.062-.1.166,0,.233Z" transform="translate(-89.874 -139.996)" fill="#455a64"/>
      <path id="Path_975" data-name="Path 975" d="M226.828,317.008,251.571,302.7a2.988,2.988,0,0,1,2.7,0l14.189,8.191c.745.434.745,1.132,0,1.551l-24.749,14.314a2.958,2.958,0,0,1-2.7,0l-14.189-8.191A.822.822,0,0,1,226.828,317.008Z" transform="translate(-143.149 -170.056)" fill="#263238"/>
      <g id="freepik--Window--inject-32" transform="translate(10.849 15.904)">
        <path id="Path_976" data-name="Path 976" d="M164.748,86.75v3.78L108.43,123.046c-.388.222-.7.041-.7-.409l.041-1.355a6.858,6.858,0,0,0-1.034-.321L89.866,130.7a1.577,1.577,0,0,0-.708,1.226v1.427a1.551,1.551,0,0,1-.7,1.226L86.51,135.7v-3.775a1.551,1.551,0,0,1,.7-1.226l76.832-44.358C164.433,86.119,164.748,86.3,164.748,86.75Z" transform="translate(-86.51 -86.246)" fill="#006f69"/>
        <path id="Path_977" data-name="Path 977" d="M164.754,147.353a1.551,1.551,0,0,1-.708,1.22L87.213,192.93c-.388.228-.7.041-.7-.409V139.7l1.944-1.122c.388-.222,1.034-3.651,1.412-3.878l16.868-9.737c.388-.222,1.308,2.306,1.7,2.068l56.318-32.5v52.823Z" transform="translate(-86.51 -90.246)" fill="#ebebeb"/>
        <path id="Path_978" data-name="Path 978" d="M92.343,191.579l33.746-19.5c.388-.228.7-.041.7.408v33.167a1.551,1.551,0,0,1-.7,1.226l-33.746,19.5c-.388.222-.7.041-.7-.409V192.8A1.551,1.551,0,0,1,92.343,191.579Z" transform="translate(-88.987 -127.647)" fill="#fafafa"/>
        <path id="Path_979" data-name="Path 979" d="M92.343,154.285l71.532-41.3c.388-.228.7-.041.7.409v4.969a1.551,1.551,0,0,1-.7,1.22l-71.532,41.3c-.388.222-.7.041-.7-.408v-4.969A1.551,1.551,0,0,1,92.343,154.285Z" transform="translate(-88.987 -99.113)" fill="#455a64"/>
        <path id="Path_980" data-name="Path 980" d="M181.4,137.622v1.313c0,.274.191.383.424.248l20.793-12.007v-2.3l-20.793,12.007A.941.941,0,0,0,181.4,137.622Z" transform="translate(-132.332 -104.902)" fill="#fafafa"/>
        <path id="Path_981" data-name="Path 981" d="M224.659,122.34a.262.262,0,0,1,.424.243V123.9a.931.931,0,0,1-.424.734l-2.229,1.288v-2.3Z" transform="translate(-152.145 -103.65)" fill="#006f69"/>
        <path id="Path_982" data-name="Path 982" d="M225.2,124.978l-.253-.078a1.327,1.327,0,0,0,.041-.321.579.579,0,0,0-.228-.517.352.352,0,0,0-.362,0,1.267,1.267,0,0,0-.517,1.034.59.59,0,0,0,.228.517.335.335,0,0,0,.16.041.4.4,0,0,0,.2-.062,1.06,1.06,0,0,0,.4-.517l.248.078h.026a.088.088,0,0,0,.088-.062.093.093,0,0,0-.036-.114Zm-.8.476a.171.171,0,0,1-.176,0,.434.434,0,0,1-.135-.372,1.117,1.117,0,0,1,.4-.874.264.264,0,0,1,.114-.036.088.088,0,0,1,.062,0c.088.047.134.186.134.367A1.086,1.086,0,0,1,224.4,125.454Z" transform="translate(-152.843 -104.484)" fill="#fafafa"/>
        <path id="Path_983" data-name="Path 983" d="M164.748,94.53v4.6L86.51,144.3v-4.6l1.453-.838c.388-.228.517-.569.7-1.226l.491-1.712a1.789,1.789,0,0,1,.708-1.226l16.868-9.737a.621.621,0,0,1,.993.243l.605,1.1c.222.383.331.61.719.383Z" transform="translate(-86.51 -90.246)" fill="#e6e6e6"/>
        <path id="Path_984" data-name="Path 984" d="M230.575,91.7c.517-.284.889-.057.889.517a1.965,1.965,0,0,1-.889,1.551c-.517.284-.895.052-.895-.517A1.949,1.949,0,0,1,230.575,91.7Z" transform="translate(-155.646 -88.819)" fill="#455a64"/>
        <path id="Path_985" data-name="Path 985" d="M224.379,95.266c.491-.284.889-.057.889.517a1.965,1.965,0,0,1-.889,1.551c-.517.284-.889.052-.889-.517A1.96,1.96,0,0,1,224.379,95.266Z" transform="translate(-152.657 -90.543)" fill="#455a64"/>
        <path id="Path_986" data-name="Path 986" d="M218.169,98.886c.491-.284.889-.057.889.517a1.965,1.965,0,0,1-.889,1.551c-.517.284-.889.052-.889-.517A1.96,1.96,0,0,1,218.169,98.886Z" transform="translate(-149.658 -92.291)" fill="#455a64"/>
        <path id="Path_987" data-name="Path 987" d="M91.455,182.167l-1.112.636.424-.812a.207.207,0,0,0,0-.2c-.036-.041-.093,0-.129.057l-.6,1.158h0v.041a.255.255,0,0,0,0,.062.13.13,0,0,0,0,.047h0v.026h0l.6.465a.067.067,0,0,0,.062,0,.258.258,0,0,0,.067-.088.186.186,0,0,0,0-.191l-.424-.321,1.112-.641a.248.248,0,0,0,.088-.191C91.569,182.172,91.5,182.136,91.455,182.167Z" transform="translate(-88.213 -132.378)" fill="#455a64" opacity="0.5"/>
        <path id="Path_988" data-name="Path 988" d="M94.488,180.324l1.112-.641-.424-.326c-.036-.026-.041-.114,0-.186s.088-.114.124-.088l.605.465h0a.154.154,0,0,1,0,.052.256.256,0,0,1,0,.062.207.207,0,0,1,0,.041h0l-.605,1.158a.187.187,0,0,1-.057.067.057.057,0,0,1-.067,0,.207.207,0,0,1,0-.2l.424-.817-1.112.672c-.052.031-.088,0-.088-.083A.232.232,0,0,1,94.488,180.324Z" transform="translate(-90.32 -131.073)" fill="#455a64" opacity="0.5"/>
        <path id="Path_989" data-name="Path 989" d="M100.452,175.266c0-.067-.067-.057-.093,0l-.155.372c-.259-.031-.574.222-.786.672a1.539,1.539,0,0,0,0,1.551.4.4,0,0,0,.517.031,1.371,1.371,0,0,0,.517-.605c.036-.078.036-.165,0-.2s-.093,0-.124.072c-.207.434-.517.626-.745.429a1.107,1.107,0,0,1,0-1.143c.145-.31.357-.517.517-.517l-.114.279c-.031.072,0,.145.041.114l.455-.295a.155.155,0,0,0,.052-.124Z" transform="translate(-92.644 -129.211)" fill="#455a64" opacity="0.5"/>
        <path id="Path_990" data-name="Path 990" d="M123.936,156.375l.408-.858a.264.264,0,0,0,0-.264c-.052-.047-.129,0-.176.1l-.4.858-.4-.393c-.052-.041-.124,0-.176.1a.263.263,0,0,0,0,.264l.4.393-.4.853a.269.269,0,0,0,0,.269.078.078,0,0,0,.088,0,.279.279,0,0,0,.088-.109l.4-.853.4.388a.062.062,0,0,0,.088,0,.228.228,0,0,0,.088-.1.269.269,0,0,0,0-.269Z" transform="translate(-104.203 -119.56)" fill="#455a64" opacity="0.5"/>
        <path id="Path_991" data-name="Path 991" d="M104.46,140.523v-1.432a1.551,1.551,0,0,1,.7-1.226l63.573-36.684c.388-.222.7-.041.7.408v1.432a1.551,1.551,0,0,1-.7,1.226l-63.573,36.684C104.775,141.154,104.46,140.973,104.46,140.523Z" transform="translate(-95.178 -93.412)" fill="#fafafa"/>
        <path id="Path_992" data-name="Path 992" d="M227.224,102.713l.186.393a.046.046,0,0,0,.057,0l.419-.16c.062,0,.093.067.041.155l-.3.564a.211.211,0,0,0,0,.109l.072.517c0,.078-.062.186-.119.181l-.372-.047a.078.078,0,0,0-.072.041l-.372.476c-.062.072-.129.047-.119-.047l.072-.59a.088.088,0,0,0,0-.083l-.305-.217c-.047-.036,0-.16.046-.212l.414-.315a.191.191,0,0,0,.062-.1l.186-.605C227.089,102.7,227.172,102.651,227.224,102.713Z" transform="translate(-154.058 -94.184)" fill="none" stroke="#e0e0e0" stroke-miterlimit="10" stroke-width="0.75"/>
        <g id="Group_260" data-name="Group 260" transform="translate(74.851 5.972)" opacity="0.5">
          <path id="Path_993" data-name="Path 993" d="M231.5,99.421a.253.253,0,0,1-.212-.124.248.248,0,0,1,.093-.336l1.986-1.148a.248.248,0,0,1,.248.424l-1.975,1.148A.217.217,0,0,1,231.5,99.421Z" transform="translate(-231.259 -97.795)" fill="#455a64"/>
          <path id="Path_994" data-name="Path 994" d="M231.5,101.641a.253.253,0,0,1-.212-.124.243.243,0,0,1,.093-.331l1.986-1.153a.248.248,0,0,1,.248.424l-1.975,1.153A.258.258,0,0,1,231.5,101.641Z" transform="translate(-231.259 -98.867)" fill="#455a64"/>
          <path id="Path_995" data-name="Path 995" d="M231.5,103.849a.243.243,0,0,1-.119-.455l1.986-1.148a.238.238,0,0,1,.336.088.248.248,0,0,1-.088.336l-1.975,1.148A.258.258,0,0,1,231.5,103.849Z" transform="translate(-231.259 -99.926)" fill="#455a64"/>
        </g>
      </g>
      <g id="freepik--question-mark--inject-32" transform="translate(25.227 77.602)">
        <path id="Path_996" data-name="Path 996" d="M118.749,213.479c2.839-2.891,3.568-4.2,3.568-5.362s-.486-1.887-2-1.034a4.8,4.8,0,0,0-2.234,2.741,1.738,1.738,0,0,1-1.107,1.034l-1.97.434c-.471.109-.786-.191-.672-.662a13.6,13.6,0,0,1,6.1-8.537c3.671-2.12,5.812-.517,5.812,3.061a12.955,12.955,0,0,1-3.62,8.372,2.683,2.683,0,0,0-.564,1.5V216.2a1.675,1.675,0,0,1-.755,1.308l-2.42,1.4c-.419.243-.755.047-.755-.434v-3.527A2.446,2.446,0,0,1,118.749,213.479Z" transform="translate(-114.315 -201.142)" fill="#455a64"/>
        <path id="Path_997" data-name="Path 997" d="M121.61,241.238a4.137,4.137,0,0,1,2-3.573c1.3-.755,1.975-.088,1.975,1.277a4.137,4.137,0,0,1-1.975,3.589C122.282,243.3,121.61,242.6,121.61,241.238Z" transform="translate(-117.838 -218.626)" fill="#455a64"/>
      </g>
    </g>
  </g>
  <g id="freepik--support-character--inject-32" transform="translate(75.353 3.121)">
    <path id="Path_998" data-name="Path 998" d="M228.178,62.743l-1.9-1.107h0a1.122,1.122,0,0,0-1.153.109L177.879,89.017a3.589,3.589,0,0,0-1.624,2.808v67.953a1.158,1.158,0,0,0,.46,1.034h0l1.913,1.107,46.478-28.493a3.583,3.583,0,0,0,1.618-2.808Z" transform="translate(-166.965 -61.525)" fill="#006f69"/>
    <path id="Path_999" data-name="Path 999" d="M178.6,188.645l-1.887-1.091h0a1.137,1.137,0,0,1-.455-1.034V118.551a3.387,3.387,0,0,1,.517-1.681l1.934,1.1a3.366,3.366,0,0,0-.517,1.686v67.958A1.163,1.163,0,0,0,178.6,188.645Z" transform="translate(-166.964 -88.251)" opacity="0.15"/>
    <path id="Path_1000" data-name="Path 1000" d="M181.554,91.161,228.8,63.883c.895-.517,1.619-.1,1.619.936v67.953a3.583,3.583,0,0,1-1.619,2.808l-47.248,27.277c-.895.517-1.624.1-1.624-.936V93.963A3.589,3.589,0,0,1,181.554,91.161Z" transform="translate(-168.742 -62.557)" fill="#006f69"/>
    <path id="Path_1001" data-name="Path 1001" d="M226.782,61.663l1.851,1.07a1.189,1.189,0,0,0-1.086.145L180.3,90.155a3.232,3.232,0,0,0-1.091,1.117l-1.918-1.1a3.263,3.263,0,0,1,1.091-1.127L225.6,61.8a1.117,1.117,0,0,1,1.153-.1Z" transform="translate(-167.467 -61.552)" fill="#fff" opacity="0.4"/>
    <path id="Path_1002" data-name="Path 1002" d="M192.291,101.441l37.837-21.848c.677-.393,1.226-.072,1.226.708V138.43a2.715,2.715,0,0,1-1.226,2.125l-37.837,21.806c-.677.388-1.231.072-1.231-.708V103.577a2.694,2.694,0,0,1,1.231-2.136Z" transform="translate(-174.117 -70.169)" fill="#fff"/>
    <path id="Path_1003" data-name="Path 1003" d="M249.459,145.161l.383-.315a4.711,4.711,0,0,0-2.358-1.386l-.124.476a4.307,4.307,0,0,1,2.1,1.226Z" transform="translate(-201.303 -101.091)" fill="#37474f"/>
    <path id="Path_1004" data-name="Path 1004" d="M252.052,148.159l-.781-.765a1.034,1.034,0,0,1,0-1.432h0a1.034,1.034,0,0,1,1.432,0l.776.765a1.034,1.034,0,0,1,0,1.432h0A1.034,1.034,0,0,1,252.052,148.159Z" transform="translate(-203.053 -102.16)" fill="#006f69"/>
    <g id="Group_261" data-name="Group 261" transform="translate(16.943 9.256)" clip-path="url(#clip-path)">
      <g id="freepik--character-boy--inject-32" transform="translate(8.884 14.322)">
        <path id="Path_1005" data-name="Path 1005" d="M261.27,174.055l1.748,2.989s11.449-6.071,12.1-6.867.605-2.4.7-3.273a9.34,9.34,0,0,0-.45-3.216c-.129-.91,1.179-.962,1.825.305.476.92.517,1.975.921,1.986a11.331,11.331,0,0,0,1.608-1.37c.708-.776,1.991-2.068,2.963-1.893a.848.848,0,0,1,.646.7,4.52,4.52,0,0,0,.362,1.551,2.444,2.444,0,0,1,.383.62,5.43,5.43,0,0,1,0,1c.041.481.517.683.569,1.153a7.937,7.937,0,0,1-.119,1.081c0,.233.072.434.072.667a2.16,2.16,0,0,1-.59,1.272,13.525,13.525,0,0,1-3.4,2.844c-1.034.683-2.42,1.288-3.62,1.929s-14.676,10.994-16.47,9.773a41.23,41.23,0,0,1-4.7-5.745" transform="translate(-231.216 -133.959)" fill="#ffa8a7"/>
        <path id="Path_1006" data-name="Path 1006" d="M248.891,178.533a92.574,92.574,0,0,1-5.688-8.961c-2.068-5.792.274-9.649.274-9.649s2.973-.92,5.45,2.989c1.091,1.722,3.946,6.562,5.818,9.758" transform="translate(-224.711 -132.572)" fill="#ffa8a7"/>
        <path id="Path_1007" data-name="Path 1007" d="M234.47,159.06a16.009,16.009,0,0,1,5.4-1.189,5.9,5.9,0,0,1,5.259,3.247c2.069,3.346,5.528,9.127,5.528,9.127a16.635,16.635,0,0,1-6.7,7.162l-6.35-9.577Z" transform="translate(-220.906 -131.622)" fill="#455a64"/>
        <g id="freepik--character-boy--inject-32-2" data-name="freepik--character-boy--inject-32">
          <path id="Path_1008" data-name="Path 1008" d="M211.4,165.341a7.068,7.068,0,0,0-2.317,3.408,16.768,16.768,0,0,0-.7,5v10.885l-.14,20.6c6.909,2.353,15.689.279,23.058-7.912,0,0-.409-26.372-.409-30.68v-.595c-.269-6.107-5.538-8.941-10.73-6l-4.364,2.461-4.38,2.839Z" transform="translate(-208.24 -132.112)" fill="#f0f0f0"/>
          <path id="Path_1009" data-name="Path 1009" d="M215.077,122.915s-3.387-.264-4.137,2.88c-.688,2.8,4.421,13.869,4.308,13.683S215.077,122.915,215.077,122.915Z" transform="translate(-209.513 -114.745)" fill="#263238"/>
          <path id="Path_1010" data-name="Path 1010" d="M231.275,108.961s-1.257-3.382-7.358-.977c-3.1,1.226-4.266,5.068-4.266,5.068Z" transform="translate(-213.75 -107.121)" fill="#006f69"/>
          <path id="Path_1011" data-name="Path 1011" d="M231.275,108.961s-1.257-3.382-7.358-.977c-3.1,1.226-4.266,5.068-4.266,5.068Z" transform="translate(-213.75 -107.121)" opacity="0.4"/>
          <path id="Path_1012" data-name="Path 1012" d="M223.5,120.539c0,4.654,3.258,7.539,7.281,6.459s7.281-5.688,7.281-10.342-3.47-4.654-7.493-3.568S223.5,115.895,223.5,120.539Z" transform="translate(-215.609 -109.716)" fill="#263238"/>
          <path id="Path_1013" data-name="Path 1013" d="M216.15,142.27a62.947,62.947,0,0,0,1.5,6.376,1.655,1.655,0,0,0,1.319.874l-.072-4.075Z" transform="translate(-212.06 -124.094)" fill="#263238"/>
          <path id="Path_1014" data-name="Path 1014" d="M216.4,125.45a2.989,2.989,0,0,0-2.069,1.386c-.879,1.277-.388,4.411.714,7.312l2.017-.274Z" transform="translate(-210.961 -115.972)" fill="#263238"/>
          <path id="Path_1015" data-name="Path 1015" d="M216.878,127.87c-.409.388-.982-.357-1.484-.827s-2.131-.858-2.948,1.339.719,4.494,2.006,4.618A2.126,2.126,0,0,0,217,131.48l.072,9.448c3.718,3.94,10.223-.7,7.3-2.446v-2.808a12.821,12.821,0,0,0,2.984-.62c1.629-.729,2.653-2.482,3.149-4.654.791-3.48,1.091-6.205.419-12.447-.734-6.847-7.834-5.016-11.666-1.2S216.878,127.87,216.878,127.87Z" transform="translate(-210.161 -110.129)" fill="#ffa8a7"/>
          <path id="Path_1016" data-name="Path 1016" d="M219.6,126.1c-.207.062-.982-1.215-1.484-1.613-.7-.548.2-7.436.2-7.436-.807-1.779.683-4.463,2.239-5.554a9.1,9.1,0,0,1,3.7-1.36q1.675-.3,3.34-.46a30.243,30.243,0,0,0,4.044-.486,13.96,13.96,0,0,0,3.02-1.1c.848-.388,1.551.486.8,1.939a10.956,10.956,0,0,1-2.741,3.444c-3.3,2.477-7.131,3.072-10.466,3.439-.75.083-.915.967-1.319,3.372C220.574,122.377,220.279,125.877,219.6,126.1Z" transform="translate(-212.879 -107.546)" fill="#263238"/>
          <path id="Path_1017" data-name="Path 1017" d="M211.551,123.576l-2.451-.864a1.63,1.63,0,0,1,1.851-1.2A1.532,1.532,0,0,1,211.551,123.576Z" transform="translate(-208.655 -114.041)" fill="#263238"/>
          <path id="Path_1018" data-name="Path 1018" d="M229.48,154.782a21.661,21.661,0,0,1-4.9-.31,3.1,3.1,0,0,1-1.758-1.551,5.358,5.358,0,0,0,1,2.1c.931,1.122,5.662.864,5.662.864Z" transform="translate(-215.281 -129.237)" fill="#f28f8f"/>
          <path id="Path_1019" data-name="Path 1019" d="M232.648,135.319a1.122,1.122,0,0,1-.724,1.034c-.4.1-.724-.2-.724-.683a1.122,1.122,0,0,1,.724-1.065C232.327,134.517,232.648,134.8,232.648,135.319Z" transform="translate(-219.327 -120.385)" fill="#263238"/>
          <path id="Path_1020" data-name="Path 1020" d="M230.2,129.482l-1.551,1.412a1.37,1.37,0,0,1,.362-1.551.719.719,0,0,1,1.189.14Z" transform="translate(-218.048 -117.729)" fill="#263238"/>
          <path id="Path_1021" data-name="Path 1021" d="M235.021,146.93l1.66.274a1.138,1.138,0,0,1-1.127.936C235.093,148.068,234.855,147.525,235.021,146.93Z" transform="translate(-221.147 -126.344)" fill="#f28f8f"/>
          <path id="Path_1022" data-name="Path 1022" d="M245.6,125.789l-1.422-.884c.295-.517.843-.791,1.236-.548A1.1,1.1,0,0,1,245.6,125.789Z" transform="translate(-225.595 -115.4)" fill="#263238"/>
          <path id="Path_1023" data-name="Path 1023" d="M244.368,131.717a1.122,1.122,0,0,1-.729,1.07c-.4.1-.729-.2-.729-.683a1.117,1.117,0,0,1,.729-1.065C244.042,130.931,244.368,131.236,244.368,131.717Z" transform="translate(-224.982 -118.66)" fill="#263238"/>
          <path id="Path_1024" data-name="Path 1024" d="M238.77,132.93l.083,5.078,2.611-1.365Z" transform="translate(-222.983 -119.584)" fill="#f28f8f"/>
        </g>
      </g>
      <path id="Path_1025" data-name="Path 1025" d="M193.02,202.548c2.037-20.943,5.331-28.384,10.492-30.468,1.732,1.355,2.012,7.534.052,12.173,0,0-4.313,13.889-4.654,18.616a76.9,76.9,0,0,0,.491,13.243,1.893,1.893,0,0,0,.77,1.334c1.1.755,1,1.81,1.779,2.829.61.8,1.189.951,1.034,1.241a1.391,1.391,0,0,1-1.551.8,4.167,4.167,0,0,1-1.35-.776,11.308,11.308,0,0,0,1.365,3.154c1.4,2.26,1.293,3.754-2.13,4.173-2.146.264-3.671-1.1-4.618-6.485-.269-1.551-.931-4.344-1.184-6.35A61.125,61.125,0,0,1,193.02,202.548Z" transform="translate(-191.918 -124.167)" fill="#ffa8a7"/>
      <path id="Path_1026" data-name="Path 1026" d="M206.045,170.16a11.874,11.874,0,0,0-5.688,4.214c-1.934,3-3.868,7.865-5.337,16.547,0,0,2.275,3.278,8.486.75,0,0,2.942-11.045,3.289-15.436C207.151,171.448,206.045,170.16,206.045,170.16Z" transform="translate(-192.972 -123.24)" fill="#455a64"/>
      <path id="Path_1027" data-name="Path 1027" d="M216.465,109.029c-3.511,2.2-5.026,4.866-5.114,8.082a61.641,61.641,0,0,0,.264,6.619,5.414,5.414,0,0,0-2.244,4.137,2.921,2.921,0,0,0,3.94,2.885,5.512,5.512,0,0,0,3.94-5,2.839,2.839,0,0,0-2.394-2.984,32.06,32.06,0,0,1,.026-9.261c.781-4.654,9.479-7.338,11.428-4.654C225.726,106.541,221.346,105.952,216.465,109.029Z" transform="translate(-199.902 -92.701)" fill="#006f69"/>
      <path id="Path_1028" data-name="Path 1028" d="M216.465,109.029c-3.511,2.2-5.026,4.866-5.114,8.082a61.641,61.641,0,0,0,.264,6.619,5.414,5.414,0,0,0-2.244,4.137,2.921,2.921,0,0,0,3.94,2.885,5.512,5.512,0,0,0,3.94-5,2.839,2.839,0,0,0-2.394-2.984,32.06,32.06,0,0,1,.026-9.261c.781-4.654,9.479-7.338,11.428-4.654C225.726,106.541,221.346,105.952,216.465,109.029Z" transform="translate(-199.902 -92.701)" opacity="0.15"/>
      <path id="Path_1029" data-name="Path 1029" d="M217.114,143.039a1.4,1.4,0,0,0-1.887-1.381,2.642,2.642,0,0,0-1.887,2.394,1.4,1.4,0,0,0,1.893,1.36A2.637,2.637,0,0,0,217.114,143.039Z" transform="translate(-201.818 -109.435)" fill="#006f69"/>
    </g>
    <path id="Path_1031" data-name="Path 1031" d="M160.791,207.631a2.1,2.1,0,0,0-.233.269h0a1.509,1.509,0,0,0-.274.517h0a.516.516,0,0,0,0,.336.367.367,0,0,0,.109.2.48.48,0,0,0,.093.083l-1.9-1.1a.465.465,0,0,1-.181-.181.59.59,0,0,1,0-.455h0a1.435,1.435,0,0,1,.176-.362,3.035,3.035,0,0,1,.331-.414Z" transform="translate(-158.327 -131.547)" fill="#006f69"/>
    <path id="Path_1032" data-name="Path 1032" d="M162.565,200.169c-.988,1.034-.641,1.732.776,1.551l7.932-.915V191.12Z" transform="translate(-160.085 -124.106)" fill="#006f69"/>
    <path id="Path_1033" data-name="Path 1033" d="M160.774,199.146c-.626.652-.714,1.169-.341,1.422l-1.9-1.1c-.4-.248-.31-.776.321-1.438L167.569,189l1.918,1.112Z" transform="translate(-158.294 -123.082)" fill="#006f69"/>
    <path id="Path_1034" data-name="Path 1034" d="M160.791,207.631a2.1,2.1,0,0,0-.233.269h0a1.725,1.725,0,0,0-.274.517h0a.63.63,0,0,0,0,.336.388.388,0,0,0,.109.2.479.479,0,0,0,.093.083l-1.9-1.1a.465.465,0,0,1-.181-.181.59.59,0,0,1,0-.455h0a1.644,1.644,0,0,1,.176-.362,3.043,3.043,0,0,1,.331-.414Z" transform="translate(-158.327 -131.547)" opacity="0.15"/>
    <path id="Path_1035" data-name="Path 1035" d="M170.007,190.1l-8.713,9.049h0l-1.924-1.112h0L168.088,189Z" transform="translate(-158.814 -123.082)" fill="#fff" opacity="0.4"/>
    <path id="Path_1036" data-name="Path 1036" d="M260.874,172.954l1.748,2.989s11.449-6.071,12.1-6.867.605-2.4.7-3.273a9.335,9.335,0,0,0-.45-3.216c-.155-1.112,1.443-.853,1.95-.414a4.817,4.817,0,0,1,.822,1.195c.248.414.714,1.763,1.189,1.846.372.067,1.112-.46,1.417-.688a18.321,18.321,0,0,0,3-3.475,1.712,1.712,0,0,1,.693-.6,1.665,1.665,0,0,1,1.406.367,3.206,3.206,0,0,1,1.034.92,2.978,2.978,0,0,1,.352.915c.517,2.193-.61,4.044-1.939,5.688a19.883,19.883,0,0,1-4.685,4.137c-1.034.683-2.42,1.288-3.62,1.929s-14.055,11.413-15.854,10.192A31.823,31.823,0,0,1,255,178.818" transform="translate(-204.993 -109.28)" fill="#ffa8a7"/>
  </g>
  <g id="freepik--Character--inject-32" transform="translate(167.116 21.704)">
    <path id="Path_1037" data-name="Path 1037" d="M429.68,148.53c4.137,0,6.309,1.241,8.026,5.062,1.644,3.656,6.748,14.262,6.495,16.832s-10.735,13.512-10.735,13.512l-2.994-3.62,6.495-10.911-6.4-9.256Z" transform="translate(-376.58 -121.039)" fill="#ffa8a7"/>
    <g id="freepik--character--inject-32-2" data-name="freepik--character--inject-32">
      <path id="Path_1038" data-name="Path 1038" d="M393.314,366.16s.465,1.412.719,2.653c.2.982.486,2.622.14,3.361s-1.686,1.215-3.765,1.2a12.31,12.31,0,0,0-4.887,1.712,13.084,13.084,0,0,1-6.148.972c-1.851-.217-3.77-1.293-4.07-2.068s-.553-1.815,4.463-3.423c.041,0,6.066-1.975,8.176-4.307Z" transform="translate(-350.256 -222.56)" fill="#263238"/>
      <path id="Path_1039" data-name="Path 1039" d="M396.523,366.319l-.957-.119-4.416.088c-2.11,2.332-8.134,4.3-8.175,4.308l-.8.269c-.874.7-.135,1.9,1.934,2.068s8.517-1.986,9.944-2.673A4.271,4.271,0,0,0,396.523,366.319Z" transform="translate(-353.465 -222.58)" fill="#ffa8a7"/>
      <path id="Path_1040" data-name="Path 1040" d="M405.241,362.76v1.9c0,.693-.807,1.717-2.917,1.639-1.479-.052-2.513-.45-2.456-1.67v-1.743Z" transform="translate(-362.183 -220.918)" fill="#ffa8a7"/>
      <path id="Path_1041" data-name="Path 1041" d="M427.462,344.155c.378.155.455.889.471,2.343,0,1.1.2,3.02-1.1,3.372s-3.175.1-3.971-.957a49.323,49.323,0,0,0-3.1-4.1c-1.236-1.4-2.586-2.715-3.041-4.654-.419-1.748,0-2.487,1.184-2.963s2.275-.083,3.93,1.3a7.716,7.716,0,0,0,1.474.781C424.412,339.625,427.08,344,427.462,344.155Z" transform="translate(-370.246 -208.482)" fill="#263238"/>
      <path id="Path_1042" data-name="Path 1042" d="M433.108,346.516l-.052,1.784s-1.189,2.332-4.5,0c-.072-.176-.372-3.62-.372-3.62Z" transform="translate(-375.856 -212.188)" fill="#ffa8a7"/>
      <path id="Path_1043" data-name="Path 1043" d="M425.279,340.557a7.722,7.722,0,0,1-1.474-.781h0c-1.334-.429-4.137.067-2.88,2.012a15.06,15.06,0,0,0,3.971,4.075c1.5.739,2.022-.176,2.022-.176L426.4,341.5A3.3,3.3,0,0,0,425.279,340.557Z" transform="translate(-372.199 -209.75)" fill="#ffa8a7"/>
      <path id="Path_1044" data-name="Path 1044" d="M417.971,254.571a42.364,42.364,0,0,0-1.929-9.225s1.122-7.87,2-15.415c2.068-17.721.693-18.006-1.81-24.17,0,0-22.717-2.922-23.668,6.526-1.184,11.764-.646,34.579-.45,38.752s.517,6.06,1.779,14.8c.941,6.655,1.836,21.2,1.836,21.2a5.728,5.728,0,0,0,5.843-.3s2.849-17.887,2.782-22.7a41.082,41.082,0,0,0-1.551-10.533s1.934-19.174,2.425-22.236c0,0,.548,6.117.75,10.29s1.329,8.181,2.327,15.953c.864,6.722,2.3,20.8,2.3,20.8,2.979,1.717,5.058.941,5.058.941S418.628,260.415,417.971,254.571Z" transform="translate(-358.299 -144.899)" fill="#006f69"/>
      <path id="Path_1045" data-name="Path 1045" d="M411.09,139.773l.833,8.832,7.756-.491-.62-9.794Z" transform="translate(-367.603 -117.192)" fill="#ffa8a7"/>
      <path id="Path_1046" data-name="Path 1046" d="M417.513,152.279c-.791-2.337-2.394-3.708-5.947-3.749l-1.308.041c-.248,1.3-4.07,2.358-7.845,1.034-.517.14-1.991.409-2.813.517l-1.81.264c-2.746.9-3.961,5.688-4.225,13.243s-1.4,23.756-1.4,23.756,5.911,3.165,15.239,1.939a18.539,18.539,0,0,0,11.309-5.4,57.48,57.48,0,0,0-4.313-12.126C418.8,160.982,418.682,155.749,417.513,152.279Z" transform="translate(-358.467 -120.982)" fill="#455a64"/>
      <path id="Path_1047" data-name="Path 1047" d="M412.7,199.541a32.7,32.7,0,0,0,4.623-.279c7.612-1,10.983-5.171,11.3-5.445a57.4,57.4,0,0,0-4.3-12.085,49.576,49.576,0,0,0,3.651-12.6c-.362,2.265-3.708,11.035-8.087,13.667a7.787,7.787,0,0,1,4.587,3.289C426.584,188.992,424.847,198.915,412.7,199.541Z" transform="translate(-368.38 -130.614)" fill="#37474f"/>
      <path id="Path_1048" data-name="Path 1048" d="M368.128,151.59c-3.646.46-6.785,1.112-8.113,4.69a39.7,39.7,0,0,1-7.917,13.2c-2.265,2.425-11.562,7.069-13.657,6.722s-3.982-3.33-5.057-2.71,1.283,2.751,1.153,3.278-3.9-.569-5.688-1.836-2.844,2.368-.517,5.088,6.681,2.932,11.418,1.986,13.393-3.759,16.832-6.965c4.509-4.214,5.331-6.505,7.286-10.135C370.093,160.076,368.128,151.59,368.128,151.59Z" transform="translate(-326.993 -122.496)" fill="#ffa8a7"/>
      <path id="Path_1049" data-name="Path 1049" d="M401.83,109.4s-2.927-3.49-.631-6.893c2.71-4.013,7.477-5.368,13.372-3.62,2.917.864,7.2,4.9,7.42,10.554.165,4.359-12.059,7.24-11.862,10.228Z" transform="translate(-362.402 -97.79)" fill="#263238"/>
      <path id="Path_1050" data-name="Path 1050" d="M398.586,122.39s-1.717,2.586-1.495,2.875a4.087,4.087,0,0,0,1.319.564Z" transform="translate(-360.833 -109.5)" fill="#f28f8f"/>
      <path id="Path_1051" data-name="Path 1051" d="M404.957,105.842c-1.67.864-4.556,2.456-5.3,8.61-.76,6.314.646,8.506,1.5,9.334.584.558,3.584.76,5.171.274,1.96-.605,6.205-2.7,8.186-5.957,2.337-3.837,2.818-8.946.119-10.952A10.137,10.137,0,0,0,404.957,105.842Z" transform="translate(-361.977 -101.178)" fill="#ffa8a7"/>
      <path id="Path_1052" data-name="Path 1052" d="M408.626,104.879s-1.458,5.761.285,9.4c0,0,1.034-2.249,2.953-1.6s1.768,3.242.238,4.566a2.885,2.885,0,0,1-3.015.641,5.254,5.254,0,0,0,2.777,4.452s5.688,2.725,10.859-2.777c4.654-5,4.07-13.962-2.813-16.232S408.626,104.879,408.626,104.879Z" transform="translate(-366.137 -99.947)" fill="#263238"/>
      <path id="Path_1053" data-name="Path 1053" d="M446.243,136.4h0A8.243,8.243,0,0,1,438,128.13V117.56h0a8.238,8.238,0,0,1,8.238,8.238Z" transform="translate(-380.598 -107.167)" fill="#263238"/>
      <path id="Path_1054" data-name="Path 1054" d="M399.1,99.809c-2.56,2.586-2.7,10.14,4.721,11.992l4.866-13.336C405.85,96.618,401.382,97.471,399.1,99.809Z" transform="translate(-361.044 -97.462)" fill="#263238"/>
      <path id="Path_1055" data-name="Path 1055" d="M407.331,126.487a1.469,1.469,0,1,1,1-2.761Z" transform="translate(-365.302 -110.096)" fill="#263238"/>
      <path id="Path_1056" data-name="Path 1056" d="M417.77,245.847l1.236-7.907a17.4,17.4,0,0,0,7.022-2.441s-1.551,2.332-5.637,3.3l-1.262,9.158-.517,9.592Z" transform="translate(-370.829 -161.5)" opacity="0.1"/>
    </g>
  </g>
</svg>
