<svg xmlns="http://www.w3.org/2000/svg" width="188" height="198.07" viewBox="0 0 188 198.07">
  <g id="In_no_time-amico" data-name="In no time-amico" transform="translate(-18.211 -28.88)">
    <g id="freepik--Floor--inject-34" transform="translate(18.211 108.271)">
      <path id="Path_1891" data-name="Path 1891" d="M177.817,225.869c-36.679-23.175-95.955-23.175-132.4,0s-36.247,60.747.432,83.918,95.959,23.175,132.4,0S214.5,249.044,177.817,225.869Z" transform="translate(-18.211 -208.487)" fill="#f5f5f5"/>
    </g>
    <g id="freepik--Shadows--inject-34" transform="translate(30.818 145.421)">
      <path id="Path_1892" data-name="Path 1892" d="M443.1,338.385a9.96,9.96,0,0,1,9.768,0c2.69,1.706,2.674,4.478-.032,6.188a9.937,9.937,0,0,1-9.768,0C440.377,342.862,440.393,340.1,443.1,338.385Z" transform="translate(-282.855 -317.403)" fill="#e0e0e0"/>
      <path id="Path_1893" data-name="Path 1893" d="M150.325,316.012l-5-7.444A5.825,5.825,0,0,0,141,305.943l-7.376-.619-11.715-7.793,4.383-2.772a.465.465,0,0,0,0-.747l-1.822-1.136a2.2,2.2,0,0,0-2.359,0l-42.961,27.18a.465.465,0,0,0,0,.747l1.777,1.123a2.192,2.192,0,0,0,2.371,0l18.647-11.784L113.5,317.4l1.511,4.655a6.783,6.783,0,0,0,6.326,4.884h10.786l7.32,4.624,17.685-11.25Z" transform="translate(-67.029 -292.534)" fill="#e0e0e0"/>
      <path id="Path_1894" data-name="Path 1894" d="M315.228,323.121c-11.69-7.382-30.583-7.382-42.2,0-10.264,6.524-11.4,16.629-3.466,23.993-6.407-.442-13.04.884-17.932,4.009-8.584,5.459-8.54,14.308.1,19.767s22.621,5.455,31.185,0c6.827-4.345,8.188-10.834,4.112-16.054,9.84,1.56,20.67-.1,28.337-4.968C326.983,342.486,326.923,330.512,315.228,323.121Z" transform="translate(-166.128 -306.512)" fill="#e0e0e0"/>
      <path id="Path_1895" data-name="Path 1895" d="M62.814,374.389a11.312,11.312,0,0,0-11.113,0c-3.058,1.945-3.042,5.1.036,7.046a11.312,11.312,0,0,0,11.113,0C65.909,379.49,65.9,376.334,62.814,374.389Z" transform="translate(-49.419 -337.393)" fill="#e0e0e0"/>
    </g>
    <g id="freepik--Windows--inject-34" transform="translate(35.08 28.88)">
      <path id="Path_1896" data-name="Path 1896" d="M134.245,30.233l2.161-1.353.133,51.69,0,0L119.117,91.457l-.008-2.705-.129-48.985Z" transform="translate(-95.143 -28.88)" fill="#f0f0f0"/>
      <path id="Path_1897" data-name="Path 1897" d="M156.9,79.213l-.129-48.981,2.161-1.353.133,51.69,0,0-2.169-1.357Z" transform="translate(-117.667 -28.88)" opacity="0.1"/>
      <path id="Path_1898" data-name="Path 1898" d="M119.3,152.294l15.257-9.534,2.169,1.357L119.308,155Z" transform="translate(-95.333 -92.422)" opacity="0.2"/>
      <path id="Path_1899" data-name="Path 1899" d="M75.235,63.923,77.4,62.57l.133,51.69,0,0L60.107,125.147l-.008-2.705L59.97,73.457Z" transform="translate(-59.97 -47.678)" fill="#f0f0f0"/>
      <path id="Path_1900" data-name="Path 1900" d="M97.889,112.9,97.76,63.923l2.161-1.353.133,51.69,0,0-2.169-1.357Z" transform="translate(-82.495 -47.678)" opacity="0.1"/>
      <path id="Path_1901" data-name="Path 1901" d="M60.29,185.984l15.257-9.534,2.169,1.357L60.3,188.69Z" transform="translate(-60.161 -111.221)" opacity="0.2"/>
    </g>
    <g id="freepik--Clock--inject-34" transform="translate(118.759 37.381)">
      <path id="Path_1902" data-name="Path 1902" d="M293.659,56.861h0a1.6,1.6,0,0,1-.129-.111h0Z" transform="translate(-282.862 -52.931)" fill="none"/>
      <path id="Path_1903" data-name="Path 1903" d="M295.6,58.5h0Z" transform="translate(-284.083 -53.908)" fill="none"/>
      <path id="Path_1904" data-name="Path 1904" d="M282.732,51.47a.893.893,0,0,1-.182-.04l.174.035Z" transform="translate(-276.317 -49.963)" fill="none"/>
      <path id="Path_1905" data-name="Path 1905" d="M283.806,51.714l-.166-.044.157.044Z" transform="translate(-276.967 -50.097)" fill="none"/>
      <path id="Path_1906" data-name="Path 1906" d="M288.36,53.47Z" transform="translate(-279.78 -51.101)" fill="none"/>
      <path id="Path_1907" data-name="Path 1907" d="M302.38,106.453q.178-.062.339-.133A3.43,3.43,0,0,1,302.38,106.453Z" transform="translate(-288.137 -80.59)" fill="none"/>
      <path id="Path_1908" data-name="Path 1908" d="M305.563,70.767h0l-.073-.137h0Z" transform="translate(-289.99 -60.676)" fill="none"/>
      <path id="Path_1909" data-name="Path 1909" d="M304.439,68.935l-.089-.155h0Z" transform="translate(-289.311 -59.644)" fill="none"/>
      <path id="Path_1910" data-name="Path 1910" d="M297.321,60.08,297.24,60Z" transform="translate(-285.073 -54.745)" fill="none"/>
      <path id="Path_1911" data-name="Path 1911" d="M298.634,61.414l0,0,0,0Z" transform="translate(-285.901 -55.532)" fill="none"/>
      <path id="Path_1912" data-name="Path 1912" d="M301.63,64.94Z" transform="translate(-287.69 -57.501)" fill="none"/>
      <path id="Path_1913" data-name="Path 1913" d="M300,107a2.134,2.134,0,0,0,.376-.049C300.246,106.972,300.125,106.972,300,107Z" transform="translate(-286.718 -80.942)" fill="none"/>
      <path id="Path_1914" data-name="Path 1914" d="M282.81,99c.19.2.38.4.578.583C283.19,99.38,283,99.181,282.81,99Z" transform="translate(-276.472 -76.506)" fill="none"/>
      <path id="Path_1915" data-name="Path 1915" d="M289.65,104.23c.182.115.359.217.537.314C290.009,104.447,289.832,104.345,289.65,104.23Z" transform="translate(-280.549 -79.424)" fill="none"/>
      <path id="Path_1916" data-name="Path 1916" d="M288,103.2a7.574,7.574,0,0,0,.662.442C288.444,103.514,288.222,103.359,288,103.2Z" transform="translate(-279.565 -78.849)" fill="none"/>
      <path id="Path_1917" data-name="Path 1917" d="M296.38,106.84l.194.04Z" transform="translate(-284.56 -80.881)" fill="none"/>
      <path id="Path_1918" data-name="Path 1918" d="M307.544,74.457l-.024-.057h0Z" transform="translate(-291.2 -62.78)" fill="none"/>
      <path id="Path_1919" data-name="Path 1919" d="M277.62,51.3Z" transform="translate(-273.378 -49.89)" fill="none"/>
      <path id="Path_1920" data-name="Path 1920" d="M280.607,51.19h-.024Z" transform="translate(-275.089 -49.829)" fill="none"/>
      <path id="Path_1921" data-name="Path 1921" d="M278.705,51.17Z" transform="translate(-273.963 -49.818)" fill="none"/>
      <path id="Path_1922" data-name="Path 1922" d="M281.72,51.287h0l-.19-.027h.17Z" transform="translate(-275.709 -49.868)" fill="none"/>
      <path id="Path_1923" data-name="Path 1923" d="M276.069,51.62Z" transform="translate(-272.413 -50.069)" fill="none"/>
      <path id="Path_1924" data-name="Path 1924" d="M275.025,52l-.065.027.057-.027Z" transform="translate(-271.793 -50.281)" fill="none"/>
      <path id="Path_1925" data-name="Path 1925" d="M291.834,55.532l-.024-.022Z" transform="translate(-281.836 -52.24)" fill="none"/>
      <path id="Path_1926" data-name="Path 1926" d="M311.934,97.57a1.713,1.713,0,0,1-.044.283A.862.862,0,0,1,311.934,97.57Z" transform="translate(-293.805 -75.708)" fill="none"/>
      <path id="Path_1927" data-name="Path 1927" d="M311.355,99.81c-.02.084-.04.168-.065.252C311.314,99.978,311.334,99.894,311.355,99.81Z" transform="translate(-293.447 -76.958)" fill="none"/>
      <path id="Path_1928" data-name="Path 1928" d="M311.646,98.73a1.152,1.152,0,0,1-.057.261C311.61,98.907,311.63,98.818,311.646,98.73Z" transform="translate(-293.626 -76.355)" fill="none"/>
      <path id="Path_1929" data-name="Path 1929" d="M310.615,101.82l-.085.221Z" transform="translate(-292.994 -78.079)" fill="none"/>
      <path id="Path_1930" data-name="Path 1930" d="M311.007,100.84c-.024.08-.048.159-.077.239C310.958,101,310.983,100.911,311.007,100.84Z" transform="translate(-293.233 -77.533)" fill="none"/>
      <path id="Path_1931" data-name="Path 1931" d="M310.167,102.74c-.032.071-.061.141-.1.208C310.106,102.881,310.135,102.811,310.167,102.74Z" transform="translate(-292.72 -78.593)" fill="none"/>
      <path id="Path_1932" data-name="Path 1932" d="M310.18,80.9v0Z" transform="translate(-292.786 -66.407)" fill="none"/>
      <path id="Path_1933" data-name="Path 1933" d="M289.79,54.24c.129.08.254.164.38.252C290.044,54.4,289.919,54.32,289.79,54.24Z" transform="translate(-280.632 -51.531)" fill="none"/>
      <path id="Path_1934" data-name="Path 1934" d="M312.224,95l-.024.376Z" transform="translate(-293.99 -74.274)" fill="none"/>
      <path id="Path_1935" data-name="Path 1935" d="M312.086,96.31l-.036.327Z" transform="translate(-293.9 -75.005)" fill="none"/>
      <path id="Path_1936" data-name="Path 1936" d="M312.32,93.26v0Z" transform="translate(-294.061 -73.303)" fill="none"/>
      <path id="Path_1937" data-name="Path 1937" d="M312.258,91.227V91.17A.3.3,0,0,0,312.258,91.227Z" transform="translate(-294.023 -72.137)" fill="none"/>
      <path id="Path_1938" data-name="Path 1938" d="M312,88.861v0Z" transform="translate(-293.871 -70.787)" fill="none"/>
      <path id="Path_1939" data-name="Path 1939" d="M307.81,105.99l.133-.15Z" transform="translate(-291.373 -80.323)" fill="none"/>
      <path id="Path_1940" data-name="Path 1940" d="M311.55,85.922v0Z" transform="translate(-293.602 -69.174)" fill="none"/>
      <path id="Path_1941" data-name="Path 1941" d="M311.764,87.15h0a1.641,1.641,0,0,0-.044-.27h0C311.736,86.973,311.748,87.061,311.764,87.15Z" transform="translate(-293.704 -69.743)" fill="none"/>
      <path id="Path_1942" data-name="Path 1942" d="M309.675,103.6c-.032.066-.069.133-.105.194C309.606,103.733,309.643,103.666,309.675,103.6Z" transform="translate(-292.422 -79.073)" fill="none"/>
      <path id="Path_1943" data-name="Path 1943" d="M306.584,107l-.154.124Z" transform="translate(-290.551 -80.97)" fill="none"/>
      <path id="Path_1944" data-name="Path 1944" d="M308.565,105.15a1.65,1.65,0,0,1-.125.164A1.664,1.664,0,0,0,308.565,105.15Z" transform="translate(-291.749 -79.938)" fill="none"/>
      <path id="Path_1945" data-name="Path 1945" d="M309.143,104.41c-.036.057-.073.119-.113.177C309.07,104.529,309.107,104.467,309.143,104.41Z" transform="translate(-292.1 -79.525)" fill="none"/>
      <path id="Path_1946" data-name="Path 1946" d="M307.281,106.46a1.415,1.415,0,0,1-.141.137A1.416,1.416,0,0,0,307.281,106.46Z" transform="translate(-290.974 -80.668)" fill="none"/>
      <path id="Path_1947" data-name="Path 1947" d="M274.393,54.93l-.133.1Z" transform="translate(-271.376 -51.916)" fill="none"/>
      <path id="Path_1948" data-name="Path 1948" d="M271.08,80.459c-.089-.256-.174-.513-.25-.769C270.907,79.946,270.992,80.2,271.08,80.459Z" transform="translate(-269.331 -65.731)" fill="none"/>
      <path id="Path_1949" data-name="Path 1949" d="M270.452,78.546h0c-.081-.265-.153-.53-.222-.8h0C270.3,78.015,270.371,78.3,270.452,78.546Z" transform="translate(-268.974 -64.649)" fill="none"/>
      <path id="Path_1950" data-name="Path 1950" d="M287.321,75.617a3.527,3.527,0,0,1-.384.049h-.683a4.241,4.241,0,0,1-.566-.062,1.692,1.692,0,0,1-.38-.075l-.121-.035-.267-.071c-.149-.044-.3-.1-.456-.155l-.093-.035L284,75.077l-.141-.066-.4-.2-.15-.08c-.178-.1-.355-.2-.537-.318s-.444-.3-.667-.442l-.109-.08c-.21-.159-.4-.323-.622-.5l-.121-.1c-.206-.181-.4-.362-.614-.557l-.053-.053c-.2-.19-.4-.389-.578-.588-.032-.035-.065-.066-.093-.1-.145-.155-.291-.318-.432-.482l-.024-.027-.4-.482-.081-.106c-.214-.27-.4-.544-.622-.827l-.065-.093c-.162-.23-.315-.442-.468-.7l-.069-.1c-.145-.23-.287-.442-.428-.7l-.1-.168c-.113-.194-.222-.393-.327-.588-.024-.044-.048-.084-.069-.128-.121-.225-.238-.442-.351-.685l-.081-.172c-.089-.186-.174-.371-.259-.557-.028-.062-.056-.124-.081-.186-.105-.234-.2-.469-.3-.707l-.036-.1c-.085-.217-.166-.442-.242-.645-.024-.062-.044-.128-.069-.194-.089-.252-.174-.508-.25-.769a.106.106,0,0,0-.02-.062c-.081-.265-.153-.53-.222-.791q-.017-.078-.04-.155c-.077-.309-.145-.619-.206-.924a.862.862,0,0,0-.04-.2l-.061-.362a1.816,1.816,0,0,0-.04-.252c-.012-.084-.036-.248-.053-.371s-.02-.146-.028-.221c-.032-.265-.057-.53-.073-.791v-.168c0-.27-.024-.539-.024-.8a7.84,7.84,0,0,1,1.45-5.013,6.372,6.372,0,0,1,4.787,1.154c4.662,2.944,8.435,10.087,8.418,15.953a7.826,7.826,0,0,1-1.446,5.008l-.121.031Z" transform="translate(-271.429 -51.032)" fill="none"/>
      <path id="Path_1951" data-name="Path 1951" d="M275.457,89.648c-.113-.19-.222-.389-.327-.588C275.235,89.259,275.344,89.453,275.457,89.648Z" transform="translate(-271.894 -70.96)" fill="none"/>
      <path id="Path_1952" data-name="Path 1952" d="M279.352,95.207c-.214-.27-.4-.544-.622-.827C278.932,94.663,279.134,94.937,279.352,95.207Z" transform="translate(-274.04 -73.928)" fill="none"/>
      <path id="Path_1953" data-name="Path 1953" d="M273.25,85.58c.085.186.17.371.259.553C273.42,85.951,273.335,85.766,273.25,85.58Z" transform="translate(-270.774 -69.018)" fill="none"/>
      <path id="Path_1954" data-name="Path 1954" d="M274.481,87.915h0c-.121-.225-.238-.442-.351-.685h0A5.206,5.206,0,0,0,274.481,87.915Z" transform="translate(-271.298 -69.939)" fill="none"/>
      <path id="Path_1955" data-name="Path 1955" d="M303.809,105.82h.028c-.113.066-.23.128-.347.186h0C303.6,105.935,303.7,105.9,303.809,105.82Z" transform="translate(-288.798 -80.311)" fill="none"/>
      <path id="Path_1956" data-name="Path 1956" d="M276.614,91.478c-.145-.23-.287-.442-.424-.7C276.327,91.014,276.469,91.249,276.614,91.478Z" transform="translate(-272.526 -71.919)" fill="none"/>
      <path id="Path_1957" data-name="Path 1957" d="M280.854,96.967c-.133-.155-.263-.314-.4-.477h0C280.591,96.654,280.721,96.813,280.854,96.967Z" transform="translate(-275.065 -75.105)" fill="none"/>
      <path id="Path_1958" data-name="Path 1958" d="M284.936,100.922c-.218-.19-.436-.385-.646-.592a.26.26,0,0,0,.032.035C284.524,100.555,284.73,100.741,284.936,100.922Z" transform="translate(-277.354 -77.248)" fill="none"/>
      <path id="Path_1959" data-name="Path 1959" d="M286.7,102.291l.081.057c-.263-.195-.525-.4-.78-.619l.077.066A7.863,7.863,0,0,0,286.7,102.291Z" transform="translate(-278.373 -78.029)" fill="none"/>
      <path id="Path_1960" data-name="Path 1960" d="M304.45,105.74Z" transform="translate(-289.37 -80.267)" fill="none"/>
      <path id="Path_1961" data-name="Path 1961" d="M281.942,98.122c-.145-.155-.291-.318-.432-.482C281.651,97.8,281.8,97.967,281.942,98.122Z" transform="translate(-275.697 -75.747)" fill="none"/>
      <path id="Path_1962" data-name="Path 1962" d="M291.623,105.262h0c-.166-.08-.327-.159-.493-.252l.089.049Q291.425,105.169,291.623,105.262Z" transform="translate(-281.431 -79.859)" fill="none"/>
      <path id="Path_1963" data-name="Path 1963" d="M293.07,105.889l.093.035c.149.057.3.106.448.155a8.139,8.139,0,0,1-.921-.349h0Z" transform="translate(-282.361 -80.261)" fill="none"/>
      <path id="Path_1964" data-name="Path 1964" d="M297.887,107.07h0Z" transform="translate(-285.299 -81.009)" fill="none"/>
      <path id="Path_1965" data-name="Path 1965" d="M299.029,107.08h-.489A4.5,4.5,0,0,0,299.029,107.08Z" transform="translate(-285.848 -81.014)" fill="none"/>
      <path id="Path_1966" data-name="Path 1966" d="M301.634,106.67c-.137.04-.279.075-.4.106h0C301.363,106.745,301.5,106.71,301.634,106.67Z" transform="translate(-287.451 -80.786)" fill="none"/>
      <path id="Path_1967" data-name="Path 1967" d="M295.705,106.7a.594.594,0,0,1-.145-.04h.032Z" transform="translate(-284.072 -80.78)" fill="none"/>
      <path id="Path_1968" data-name="Path 1968" d="M277.879,93.278h0c-.162-.23-.315-.442-.469-.7h0C277.563,92.823,277.717,93.053,277.879,93.278Z" transform="translate(-273.253 -72.924)" fill="none"/>
      <path id="Path_1969" data-name="Path 1969" d="M271.447,57.83l-.1.15Z" transform="translate(-269.641 -53.534)" fill="none"/>
      <path id="Path_1970" data-name="Path 1970" d="M271.965,57.14c-.036.049-.073.093-.105.141A.8.8,0,0,1,271.965,57.14Z" transform="translate(-269.945 -53.149)" fill="none"/>
      <path id="Path_1971" data-name="Path 1971" d="M270.979,58.58l-.089.159Z" transform="translate(-269.367 -53.953)" fill="none"/>
      <path id="Path_1972" data-name="Path 1972" d="M273.1,55.92l-.121.119Z" transform="translate(-270.613 -52.468)" fill="none"/>
      <path id="Path_1973" data-name="Path 1973" d="M273.729,55.4l-.129.106Z" transform="translate(-270.982 -52.178)" fill="none"/>
      <path id="Path_1974" data-name="Path 1974" d="M272.513,56.5c-.036.044-.077.084-.113.133C272.436,56.584,272.477,56.544,272.513,56.5Z" transform="translate(-270.267 -52.792)" fill="none"/>
      <path id="Path_1975" data-name="Path 1975" d="M271.62,81.87c.077.217.158.442.242.645C271.773,82.3,271.7,82.087,271.62,81.87Z" transform="translate(-269.802 -66.948)" fill="none"/>
      <path id="Path_1976" data-name="Path 1976" d="M272.31,83.56c.1.239.194.473.3.707C272.5,84.033,272.407,83.8,272.31,83.56Z" transform="translate(-270.213 -67.891)" fill="none"/>
      <path id="Path_1977" data-name="Path 1977" d="M273.916,73.058c-.133-.155-.263-.314-.4-.477h0l-.085-.106h0c-.214-.27-.4-.544-.622-.827l-.065-.093h0c-.162-.225-.315-.442-.469-.694h0l-.069-.1h0c-.145-.23-.287-.442-.424-.7-.036-.057-.069-.115-.1-.172h0c-.113-.195-.222-.389-.327-.588a1.186,1.186,0,0,1-.069-.124h0c-.121-.225-.238-.442-.352-.685h0l-.081-.177c-.089-.181-.174-.367-.259-.553l-.081-.186c-.105-.234-.2-.469-.3-.707l-.036-.1c-.085-.217-.166-.442-.242-.645l-.069-.194h0c-.089-.256-.174-.513-.25-.769a.106.106,0,0,0-.02-.062h0c-.081-.265-.154-.53-.222-.8h0l-.036-.15c-.081-.309-.149-.619-.21-.924h0a.859.859,0,0,0-.04-.2l-.061-.362c0-.075-.028-.15-.036-.23h0a2.919,2.919,0,0,0-.053-.371c-.016-.124-.02-.146-.028-.221-.032-.265-.053-.53-.073-.791V60.88c0-.27-.024-.539-.024-.8v-.734a1.391,1.391,0,0,1,.024-.318c.024-.1,0-.133.02-.2s0-.2.032-.3a.732.732,0,0,0,.032-.2c.008-.066.028-.181.044-.27s.028-.137.04-.208.036-.164.053-.248.036-.133.052-.2.04-.155.065-.23l.061-.194c.024-.071.044-.146.073-.217s.048-.119.069-.181.052-.137.081-.2.053-.115.081-.172.057-.128.089-.19l.089-.159.1-.181.1-.15c.036-.053.069-.11.109-.164s.069-.093.105-.141.073-.1.113-.15.077-.088.113-.133l.121-.137.121-.119.129-.124.129-.106.137-.111.133-.1a3.984,3.984,0,0,1,1.353-.6,7.924,7.924,0,0,0-1.45,5.013c0,.265,0,.535.024.8v.168a6.622,6.622,0,0,0,.073.791,1.95,1.95,0,0,0,.028.221c.008.071.032.248.053.371s.024.168.04.252l.061.362a1.311,1.311,0,0,0,.04.2c.061.305.129.614.206.924q.024.076.04.155c.069.261.141.526.222.791a.1.1,0,0,0,.02.062c.077.261.162.517.25.769.024.066.044.133.069.194.077.217.157.442.242.645l.036.1c.1.239.194.473.3.707.024.062.053.124.081.186.085.186.17.371.258.557l.081.172c.113.23.23.442.351.685.02.044.044.084.069.128.105.195.214.393.327.588l.1.168c.141.234.283.469.428.7l.069.1c.154.239.307.469.469.7l.065.093c.2.283.4.557.622.827l.081.106.4.482.024.027c.141.164.287.327.432.482.028.035.061.066.093.1.19.2.38.4.578.588l.053.053c.2.195.4.376.614.557l.121.1c.2.172.4.336.622.5l.109.08c.222.159.444.314.667.442s.36.217.537.318l.15.08.4.2.141.066.372.155.093.035c.154.057.307.111.456.155l.267.071.121.035c.129.031.255.053.38.075a4.233,4.233,0,0,0,.565.062h.683a3.521,3.521,0,0,0,.384-.049h.117l.121-.031a4.243,4.243,0,0,1-1.046.937h0l-.04.022h-.028c-.1.062-.206.115-.311.168h0l-.109.049a3.449,3.449,0,0,1-.339.133H282.3c-.133.04-.271.075-.4.1h-.109a3.788,3.788,0,0,0-.376.049h-.949l-.307-.04-.194-.04-.186-.04-.113-.031h-.032l-.238-.062c-.149-.049-.3-.1-.448-.155l-.093-.035-.376-.155h0l-.133-.062h0q-.2-.093-.4-.2l-.089-.049a.316.316,0,0,1-.065-.035c-.178-.1-.355-.2-.537-.314s-.444-.3-.662-.442h-.032l-.081-.057c-.21-.159-.4-.323-.622-.5l-.077-.066-.044-.035c-.206-.181-.4-.367-.614-.557a.248.248,0,0,1-.032-.035h-.02c-.2-.186-.4-.385-.578-.583l-.093-.1c-.145-.155-.291-.318-.432-.482Z" transform="translate(-268.127 -51.196)" fill="#ebebeb"/>
      <path id="Path_1978" data-name="Path 1978" d="M306.7,86.16v.57l1.466.924v-.57Z" transform="translate(-290.711 -69.342)" fill="#fff"/>
      <path id="Path_1979" data-name="Path 1979" d="M277.016,59.04l-.226.345,1.268,1.728.226-.349Z" transform="translate(-272.884 -54.209)" fill="#fff"/>
      <path id="Path_1980" data-name="Path 1980" d="M288.473,68.921c0,5.866-3.809,8.23-8.483,5.3s-8.422-10.109-8.41-15.975,3.809-8.23,8.483-5.3S288.489,63.055,288.473,68.921Zm-12.28-5.662a.55.55,0,0,0,.21.3.179.179,0,0,0,.089.031l3.587.309a.113.113,0,0,0,.133-.057l2.347-4.354a.471.471,0,0,0-.1-.442.414.414,0,0,0-.1-.093c-.081-.049-.162-.044-.2.031l-2.307,4.283-3.535-.305c-.113,0-.17.124-.121.3m6.9-3.846.735-1.132-.4-.53-.707,1.145.4.53m.3,14.313.4-.035-.768-2.077-.4.035.727,2.06m-9.5-9.234,1.273-.119-.222-.637-1.277.119.226.637m12.256,7.744.226-.349L285.1,70.159l-.226.349,1.268,1.728M273.911,54.922l-.226.345L274.953,57l.226-.349-1.268-1.724m11.21,8.513,1.272-.119-.226-.632-1.273.115.226.637m-8.483-9.99-.4.035.727,2.06.4-.035-.731-2.06M276.6,69.421l.739-1.136-.4-.526-.739,1.132.4.53m-2.311-9.194v-.553l-1.466-.924v.566l1.466.928m12.947,7.612-1.466-.928v.57l1.466.924v-.566m-7.453,4.65.448.283V70.946l-.448-.287v1.848m.5-17.84-.448-.283v1.865l.448.287V54.688" transform="translate(-269.778 -50.109)" fill="#e0e0e0"/>
      <path id="Path_1981" data-name="Path 1981" d="M291.984,57.78l0,1.843.448.287.008-1.848Z" transform="translate(-281.938 -53.506)" fill="#fff"/>
      <path id="Path_1982" data-name="Path 1982" d="M299.889,65.4l-.739,1.132.392.53.735-1.132Z" transform="translate(-286.211 -57.758)" fill="#fff"/>
      <path id="Path_1983" data-name="Path 1983" d="M305.812,76.56l-1.272.115.226.637,1.272-.119Z" transform="translate(-289.424 -63.985)" fill="#fff"/>
      <path id="Path_1984" data-name="Path 1984" d="M304.716,93.47l-.226.349,1.268,1.728.226-.349Z" transform="translate(-289.394 -73.42)" fill="#fff"/>
      <path id="Path_1985" data-name="Path 1985" d="M299.462,96.8l-.392.035.727,2.06.392-.035Z" transform="translate(-286.164 -75.278)" fill="#fff"/>
      <path id="Path_1986" data-name="Path 1986" d="M291.884,94.6l0,1.848.448.283,0-1.843Z" transform="translate(-281.878 -74.051)" fill="#fff"/>
      <path id="Path_1987" data-name="Path 1987" d="M283.779,88.04l-.739,1.132.388.53.739-1.136Z" transform="translate(-276.609 -70.391)" fill="#fff"/>
      <path id="Path_1988" data-name="Path 1988" d="M278,78.94l-1.272.119.226.637,1.272-.119Z" transform="translate(-272.848 -65.313)" fill="#fff"/>
      <path id="Path_1989" data-name="Path 1989" d="M274.65,67.66v.566l1.466.928v-.57Z" transform="translate(-271.608 -59.019)" fill="#fff"/>
      <path id="Path_1990" data-name="Path 1990" d="M283.528,55.66l-.388.035.727,2.06.392-.035Z" transform="translate(-276.669 -52.323)" fill="#fff"/>
      <path id="Path_1991" data-name="Path 1991" d="M286.832,77.576a.179.179,0,0,0-.089-.031h-.073l-3.535-.305c-.113,0-.17.124-.121.3a.55.55,0,0,0,.21.3.179.179,0,0,0,.089.031l3.587.309h0c.113,0,.166-.119.117-.3a.537.537,0,0,0-.186-.309Z" transform="translate(-276.583 -64.364)" fill="#fff"/>
      <path id="Path_1992" data-name="Path 1992" d="M294.6,68.07c-.081-.049-.162-.044-.2.031l-2.307,4.283h.073a.179.179,0,0,1,.089.031.528.528,0,0,1,.206.3c.049.177,0,.309-.117.3h0a.113.113,0,0,0,.133-.057l2.347-4.354a.472.472,0,0,0-.1-.442A.4.4,0,0,0,294.6,68.07Z" transform="translate(-282.003 -59.23)" fill="#f5f5f5"/>
      <path id="Path_1993" data-name="Path 1993" d="M287.206,74.141l.133-.115a1.419,1.419,0,0,0,.141-.137,1.779,1.779,0,0,0,.129-.124l.133-.15.121-.141a1.647,1.647,0,0,0,.125-.164c.036-.049.077-.1.113-.15s.077-.119.113-.177.073-.106.1-.164.073-.128.105-.194.069-.115.1-.172.065-.137.1-.208l.089-.186.085-.221c.024-.066.052-.128.077-.194s.052-.159.077-.239.048-.137.069-.2.044-.168.065-.252.041-.141.057-.217.04-.172.057-.261l.049-.23a1.716,1.716,0,0,1,.044-.283l.036-.23.036-.327.024-.208.024-.376v-.765c0-.287,0-.575-.024-.884h0a.292.292,0,0,1,0-.057c-.02-.323-.044-.65-.085-.981h0v-.111l-.073-.535h0a1.629,1.629,0,0,0-.044-.27h0c-.024-.128-.044-.261-.069-.393h0v-.062a21.236,21.236,0,0,0-.541-2.184h0a23.793,23.793,0,0,0-1.05-2.816L287.5,59.7h0c-.234-.517-.481-1.03-.747-1.529h0l-.073-.137h0c-.121-.225-.246-.442-.372-.663l-.089-.155h0c-.347-.588-.711-1.154-1.1-1.7h0a19.5,19.5,0,0,0-1.212-1.534h0c-.158-.186-.319-.362-.481-.544h0l-.081-.08c-.21-.23-.424-.442-.646-.663h-.024c-.226-.221-.461-.442-.695-.637h0l-.125-.111h0c-.222-.186-.444-.362-.675-.53h0l-.024-.022c-.145-.106-.291-.212-.436-.309s-.251-.172-.38-.252c-.194-.124-.4-.234-.578-.34h0a9.046,9.046,0,0,0-1.725-.743h0l-.158-.044-.25-.066h0l-.174-.035-.234-.044h-.19l-.3-.035h-.117a5.325,5.325,0,0,0-.65,0h-.093a2.413,2.413,0,0,0-.4.049h0a3.935,3.935,0,0,0-.565.133h-.069c-.125.044-.246.093-.368.146h0l-.057.027a5.274,5.274,0,0,0-.489.261h0l2.238-1.423.048-.031.061-.035c.109-.062.222-.124.335-.177a.467.467,0,0,1,.065-.035h.053q.2-.088.4-.159h0a4.077,4.077,0,0,1,.456-.115h.125a3.28,3.28,0,0,1,.4-.053h.089a4.216,4.216,0,0,1,.529,0h.347a2.193,2.193,0,0,1,.372.049h0l.4.084.129.035.263.071h.024c.162.049.327.1.493.164l.1.044c.133.049.267.106.4.168l.057.022.1.049c.141.066.287.141.432.217l.166.088a6.4,6.4,0,0,1,.578.34c.174.124.481.318.719.5l.121.088c.226.168.452.345.675.53l.125.111c.226.194.448.393.667.606a.365.365,0,0,1,.057.057c.214.2.4.416.626.637l.061.062.04.044c.158.168.311.34.465.522l.024.027c.145.172.287.345.428.522l.04.049.048.066c.23.292.456.588.675.884v.027a.746.746,0,0,1,.048.071q.263.371.509.756l.053.075a.188.188,0,0,1,.02.04c.162.243.315.5.465.751a.4.4,0,0,0,.044.071l.061.115c.121.208.238.442.356.632l.052.1a.2.2,0,0,1,0,.04c.133.248.259.5.38.743l.028.062.061.124.279.6c0,.04.036.084.057.124s.02.053.032.075c.109.256.218.513.319.769h0a.63.63,0,0,0,.028.08c.093.234.178.469.263.7a.34.34,0,0,0,.044.115.526.526,0,0,1,.028.1c.1.274.19.553.275.831h0v.049q.133.442.242.884l.028.11a.306.306,0,0,1,0,.057c.081.336.158.667.222,1a.678.678,0,0,1,0,.088l.024.133c.024.128.045.261.069.389s.028.181.044.274.036.27.053.4a1.67,1.67,0,0,0,.028.19.223.223,0,0,0,0,.049c.032.287.057.575.077.858v.181c0,.292.028.579.028.884,0,3.152-1.026,5.366-2.662,6.409l-2.238,1.423.141-.1a1.643,1.643,0,0,0,.141-.1Z" transform="translate(-271.173 -48.111)" fill="#ebebeb"/>
      <path id="Path_1994" data-name="Path 1994" d="M267.12,58.281c0,6.339,4.04,14.061,9.1,17.239,2.609,1.649,4.969,1.768,6.637.6a1.644,1.644,0,0,0,.141-.1l.154-.124.133-.115a1.413,1.413,0,0,0,.141-.137,1.763,1.763,0,0,0,.129-.124l.133-.15.121-.141a1.676,1.676,0,0,0,.125-.164c.036-.049.077-.1.113-.15s.077-.119.113-.177.073-.106.105-.164.073-.128.1-.194.069-.115.1-.172.065-.137.1-.208l.089-.186.085-.221c.024-.066.052-.128.077-.194s.053-.159.077-.239.048-.137.069-.2.044-.168.065-.252.04-.141.057-.217.04-.172.057-.261l.048-.23a1.72,1.72,0,0,1,.044-.283l.036-.23.036-.327.024-.208.024-.376v-.765c0-.287,0-.575-.024-.884v-.057c-.02-.323-.044-.65-.085-.981v-.111l-.073-.535a1.642,1.642,0,0,0-.044-.27c-.016-.093-.044-.261-.069-.393v-.062a21.22,21.22,0,0,0-.541-2.184h0a23.788,23.788,0,0,0-1.05-2.816l-.024-.057c-.234-.517-.481-1.03-.747-1.529l-.073-.137c-.121-.225-.246-.442-.372-.663l-.089-.155c-.347-.588-.711-1.154-1.1-1.7h0a19.472,19.472,0,0,0-1.212-1.534h0c-.158-.186-.319-.362-.481-.544l-.081-.08c-.21-.23-.424-.442-.646-.663h-.024c-.226-.221-.461-.442-.695-.637a1.622,1.622,0,0,1-.129-.111c-.222-.186-.444-.362-.675-.53l-.024-.022c-.145-.106-.291-.212-.436-.309s-.25-.172-.38-.252c-.194-.124-.4-.234-.578-.34h0a9.043,9.043,0,0,0-1.725-.743l-.166-.044-.25-.066a.892.892,0,0,1-.182-.04l-.234-.044-.19-.027-.3-.035h-.117a5.323,5.323,0,0,0-.65,0h-.105a2.414,2.414,0,0,0-.4.049h0a3.941,3.941,0,0,0-.565.133h-.069c-.125.044-.246.093-.368.146l-.065.027a5.289,5.289,0,0,0-.489.261C268.15,52.906,267.128,55.116,267.12,58.281Zm5.813,13.473-.024-.031c-.133-.155-.263-.314-.4-.477l-.085-.106c-.214-.27-.4-.544-.622-.827l-.065-.093c-.162-.23-.315-.442-.469-.7l-.069-.1c-.145-.23-.287-.442-.424-.7-.036-.057-.069-.115-.1-.172-.113-.19-.222-.389-.327-.588a1.181,1.181,0,0,1-.069-.124c-.121-.225-.238-.442-.351-.685l-.081-.177c-.089-.181-.174-.367-.259-.553l-.081-.186c-.105-.234-.2-.469-.3-.707l-.036-.1c-.085-.217-.166-.442-.242-.645l-.069-.194c-.089-.256-.174-.513-.25-.769a.106.106,0,0,0-.02-.062c-.081-.265-.153-.53-.222-.8l-.036-.15c-.081-.309-.15-.619-.21-.924a.863.863,0,0,0-.04-.2l-.061-.362c0-.075-.028-.15-.036-.23s-.04-.261-.057-.393-.02-.146-.028-.221c-.032-.265-.053-.53-.073-.791v-.168c0-.27-.024-.539-.024-.8v-.734a1.391,1.391,0,0,1,.024-.318c.024-.1,0-.133.02-.2s0-.2.032-.3a.73.73,0,0,0,.032-.2c.008-.066.028-.181.044-.27s.028-.137.04-.208.036-.164.052-.248.036-.133.053-.2.04-.155.065-.23l.061-.194c.024-.071.044-.146.073-.217s.049-.119.069-.181.053-.137.081-.2.053-.115.081-.172.056-.128.089-.19l.089-.159.1-.181.1-.15c.036-.053.069-.111.109-.164s.069-.093.105-.141.073-.1.113-.15.077-.088.113-.133l.121-.137.121-.119.129-.124.129-.106.137-.111.133-.1a3.984,3.984,0,0,1,1.353-.6,6.372,6.372,0,0,1,4.787,1.154c4.662,2.944,8.435,10.087,8.418,15.953a7.827,7.827,0,0,1-1.446,5.008,4.244,4.244,0,0,1-1.046.937h0l-.04.022c-.113.066-.23.128-.347.186l-.109.049a3.422,3.422,0,0,1-.339.133h-.061c-.137.04-.279.075-.4.106h-.109a3.786,3.786,0,0,0-.376.049h-.957l-.307-.04-.194-.04-.186-.04a.6.6,0,0,1-.145-.04l-.238-.062a8.149,8.149,0,0,1-.921-.349l-.133-.062c-.166-.08-.327-.159-.493-.252a.314.314,0,0,1-.065-.035c-.178-.1-.355-.2-.537-.314s-.444-.3-.663-.442h-.032c-.263-.194-.525-.4-.78-.619l-.044-.035c-.218-.19-.436-.385-.646-.592h-.02c-.2-.186-.4-.385-.578-.583l-.093-.1C273.22,72.081,273.074,71.913,272.933,71.754Z" transform="translate(-267.12 -49.861)" fill="#fff"/>
    </g>
    <g id="freepik--Pictures--inject-34" transform="translate(180.419 54.495)">
      <path id="Path_1995" data-name="Path 1995" d="M426.054,143.34l12.349,7.8-.028,10.326-12.345-7.8Z" transform="translate(-423.497 -118.361)" fill="none"/>
      <path id="Path_1996" data-name="Path 1996" d="M424.367,142.436l-.024,10.326-1.143.729.028-11.771Z" transform="translate(-421.81 -117.457)" fill="#f0f0f0"/>
      <path id="Path_1997" data-name="Path 1997" d="M436.688,174.5l0,1.445L423.2,167.429l1.143-.729Z" transform="translate(-421.81 -131.396)" fill="#f5f5f5"/>
      <path id="Path_1998" data-name="Path 1998" d="M419.76,151.055l16.255,10.268.04-15.245L419.8,135.81Zm1.39-.884.028-11.775,1.139.72,12.349,7.828-.028,10.326v1.445Z" transform="translate(-419.76 -114.16)" fill="#e0e0e0"/>
      <path id="Path_1999" data-name="Path 1999" d="M419.86,134.895,421,134.17l16.251,10.268-1.143.725Z" transform="translate(-419.82 -113.245)" fill="#f5f5f5"/>
      <path id="Path_2000" data-name="Path 2000" d="M461.174,157.4l-.04,15.241-1.143.729.04-15.245Z" transform="translate(-443.739 -126.206)" fill="#f0f0f0"/>
      <path id="Path_2001" data-name="Path 2001" d="M427.254,96.01l12.349,7.8-.028,10.321-12.345-7.8Z" transform="translate(-424.212 -91.952)" fill="none"/>
      <path id="Path_2002" data-name="Path 2002" d="M425.561,95.1l-.024,10.326-1.147.725.032-11.771Z" transform="translate(-422.52 -91.043)" fill="#f0f0f0"/>
      <path id="Path_2003" data-name="Path 2003" d="M437.882,127.167l0,1.45-13.488-8.522,1.147-.725Z" transform="translate(-422.52 -104.987)" fill="#f5f5f5"/>
      <path id="Path_2004" data-name="Path 2004" d="M421,103.739l16.251,10.268.04-15.245L421.024,88.48Zm1.386-.884.032-11.771,1.123.72,12.349,7.8-.028,10.321v1.45Z" transform="translate(-420.499 -87.751)" fill="#e0e0e0"/>
      <path id="Path_2005" data-name="Path 2005" d="M421.06,87.559l1.143-.729L438.454,97.1l-1.143.729Z" transform="translate(-420.535 -86.83)" fill="#f5f5f5"/>
      <path id="Path_2006" data-name="Path 2006" d="M462.374,110.06l-.04,15.245-1.143.725.04-15.241Z" transform="translate(-444.454 -99.792)" fill="#f0f0f0"/>
      <path id="Path_2007" data-name="Path 2007" d="M430.827,152.21l-3.369,2.9-.008,2.833,11.2,7.072.008-2.833-2.133-4.637-1.915,1.627.675,2.3-.982-2.042Z" transform="translate(-424.344 -123.311)" fill="#e0e0e0"/>
      <path id="Path_2008" data-name="Path 2008" d="M443.5,155.261c-.525-.332-.957-.062-.957.6a2.334,2.334,0,0,0,.953,1.8c.525.336.953.066.957-.6A2.349,2.349,0,0,0,443.5,155.261Z" transform="translate(-433.338 -124.934)" fill="#e0e0e0"/>
      <path id="Path_2009" data-name="Path 2009" d="M432.023,104.88l-3.365,2.9-.008,2.833,11.2,7.077.008-2.833-2.133-4.641-1.919,1.631.679,2.3L435.5,112.1Z" transform="translate(-425.059 -96.901)" fill="#e0e0e0"/>
      <path id="Path_2010" data-name="Path 2010" d="M444.7,107.93c-.529-.332-.957-.066-.957.6a2.34,2.34,0,0,0,.949,1.8c.529.332.957.066.957-.6a2.341,2.341,0,0,0-.949-1.8Z" transform="translate(-434.053 -98.524)" fill="#e0e0e0"/>
    </g>
    <g id="freepik--speech-bubble--inject-34" transform="translate(145.149 46.413)">
      <path id="Path_2011" data-name="Path 2011" d="M336.51,68.8l24.185,15.3a3.018,3.018,0,0,1,1.349,2.55v26.61a2.946,2.946,0,0,1-1.39,2.469,2.458,2.458,0,0,1-2.65-.078l-10.1-6.56-.218.385-.032.035h-.024c-.4.287-1.087.694-1.24.782h0a.143.143,0,0,1-.182-.1l-.881-2.732h0L333.8,100.382a3,3,0,0,1-1.353-2.55V71.187C332.45,69.065,335.3,68.035,336.51,68.8Z" transform="translate(-332.45 -68.546)" fill="#006f69"/>
      <path id="Path_2012" data-name="Path 2012" d="M396.45,107.77Z" transform="translate(-370.597 -90.432)" fill="none"/>
      <path id="Path_2013" data-name="Path 2013" d="M368.167,160.046l-.032.035h-.024c-.4.287-1.087.694-1.24.782h0a.126.126,0,0,0,.089-.066l.852-1.512-.17-.106h0l.751.469Z" transform="translate(-352.966 -119.118)" fill="#fff" opacity="0.2"/>
      <path id="Path_2014" data-name="Path 2014" d="M359.022,86.87a3,3,0,0,0-.719-.986h0a2.456,2.456,0,0,0-.327-.243L333.791,70.334a.831.831,0,0,0-.9,0,1,1,0,0,0-.446.849c0-2.122,2.852-3.152,4.06-2.391l24.185,15.3a2.856,2.856,0,0,1,1,1.109Z" transform="translate(-332.45 -68.546)" fill="#fff" opacity="0.4"/>
      <path id="Path_2015" data-name="Path 2015" d="M397.051,135.833V109.228a3.026,3.026,0,0,0-.3-1.326l2.674-1.662a3.166,3.166,0,0,1,.347,1.441v26.61a2.947,2.947,0,0,1-1.39,2.469,2.458,2.458,0,0,1-2.65-.078.83.83,0,0,0,.878-.018,1,1,0,0,0,.443-.83Z" transform="translate(-370.168 -89.578)" fill="#fff" opacity="0.2"/>
      <path id="Path_2016" data-name="Path 2016" d="M341.358,90.55,355.4,99.417l-.844,10.529c-.048.641-.5.884-1.038.53l-10.753-6.807a2.045,2.045,0,0,1-.553-.553l.02.3a4.593,4.593,0,0,0,1.858,3.315l.473.3a1.741,1.741,0,0,1,.5.221,2.547,2.547,0,0,1,.5.442l5.037,3.183a1.593,1.593,0,0,1,.5.221,2.661,2.661,0,0,1,.505.416l1.07.676a1.024,1.024,0,0,1,.4.787c0,.287-.19.4-.4.261l-.085-.053a3.393,3.393,0,0,1,.186,1.092c0,1.167-.755,1.64-1.689,1.052a4.146,4.146,0,0,1-1.676-3.178,1.743,1.743,0,0,1,.194-.853l-3.078-1.945a3.549,3.549,0,0,1,.186,1.092c0,1.171-.759,1.64-1.689,1.052a4.12,4.12,0,0,1-1.676-3.178,1.713,1.713,0,0,1,.214-.884,6.862,6.862,0,0,1-2.189-4.42l-.953-14.145a2.039,2.039,0,0,0-.828-1.472l-1.737-1.1a1.023,1.023,0,0,1-.4-.782c0-.292.19-.407.4-.261l1.737,1.1a4.093,4.093,0,0,1,1.652,2.948Zm7.348,14.989.02-8.434a1.391,1.391,0,0,0-.561-1.065c-.311-.194-.562-.04-.566.354l-.02,8.434a1.394,1.394,0,0,0,.561,1.052c.311.194.566.035.566-.354m2.424,1.538.02-8.434a1.391,1.391,0,0,0-.561-1.065c-.311-.194-.566-.04-.566.354v8.434a1.382,1.382,0,0,0,.562,1.065c.311.195.561.035.565-.354m2.424,1.538.024-8.434a1.388,1.388,0,0,0-.57-1.052c-.311-.195-.565-.04-.565.354l-.02,8.434a1.377,1.377,0,0,0,.586,1.07c.307.194.562.035.562-.354m-7.3-4.615.02-8.434a1.355,1.355,0,0,0-.561-1.065c-.311-.194-.562-.04-.566.354v8.434a1.4,1.4,0,0,0,.561,1.065c.311.194.566.035.566-.354m-2.424-1.538.024-8.434a1.4,1.4,0,0,0-.561-1.065c-.311-.194-.566-.04-.566.354l-.024,8.434a1.382,1.382,0,0,0,.562,1.061c.311.2.565.04.565-.349m1.212,6.122c-.347-.221-.63-.044-.634.393a1.563,1.563,0,0,0,.63,1.193c.351.221.63.044.634-.393a1.549,1.549,0,0,0-.63-1.193m6.059,3.832c-.347-.221-.63-.044-.63.393a1.545,1.545,0,0,0,.626,1.193c.347.221.634.044.634-.4a1.553,1.553,0,0,0-.63-1.189" transform="translate(-335.436 -77.831)" fill="#fff"/>
      <path id="Path_2017" data-name="Path 2017" d="M383.068,116.376a1.283,1.283,0,0,1,.432.5c.238.442.238.937,0,1.083l-3.567,2.21a.4.4,0,0,1-.432-.049,1.338,1.338,0,0,1-.432-.5l-1.745-3.315c-.242-.442-.238-.937,0-1.087a.405.405,0,0,1,.432.049,1.339,1.339,0,0,1,.432.5l1.321,2.52,3.135-1.954a.4.4,0,0,1,.424.049Z" transform="translate(-359.089 -94.565)" fill="#fff"/>
      <path id="Path_2018" data-name="Path 2018" d="M378.884,107.825a10.573,10.573,0,0,1,4.29,8.133c-.008,2.988-1.939,4.19-4.318,2.688a10.554,10.554,0,0,1-4.286-8.129C374.578,107.525,376.509,106.327,378.884,107.825Zm-.5,7.895,3.567-2.21c.242-.146.242-.632,0-1.083a1.283,1.283,0,0,0-.432-.5.4.4,0,0,0-.432-.049l-3.106,1.936-1.317-2.5a1.339,1.339,0,0,0-.432-.5.405.405,0,0,0-.432-.049c-.238.15-.242.632,0,1.087l1.745,3.315a1.338,1.338,0,0,0,.432.5.4.4,0,0,0,.432.049" transform="translate(-357.555 -90.103)" fill="#006f69"/>
      <path id="Path_2019" data-name="Path 2019" d="M378.884,107.825a10.573,10.573,0,0,1,4.29,8.133c-.008,2.988-1.939,4.19-4.318,2.688a10.554,10.554,0,0,1-4.286-8.129C374.578,107.525,376.509,106.327,378.884,107.825Zm-.5,7.895,3.567-2.21c.242-.146.242-.632,0-1.083a1.283,1.283,0,0,0-.432-.5.4.4,0,0,0-.432-.049l-3.106,1.936-1.317-2.5a1.339,1.339,0,0,0-.432-.5.405.405,0,0,0-.432-.049c-.238.15-.242.632,0,1.087l1.745,3.315a1.338,1.338,0,0,0,.432.5.4.4,0,0,0,.432.049" transform="translate(-357.555 -90.103)" fill="#fff" opacity="0.3"/>
    </g>
    <g id="freepik--character-2--inject-34" transform="translate(42.957 48.187)">
      <path id="Path_2020" data-name="Path 2020" d="M125.456,75.694h0a5.223,5.223,0,0,0-4.33-3.125,1.615,1.615,0,0,0-.566.124L81.381,97.07a3.924,3.924,0,0,0-1.507,1.768,4.408,4.408,0,0,0-.4,1.8V193.4c0,2.36,2.488,4.615,4.827,3.536h0a.768.768,0,0,0,.154-.066l39.184-24.435a4.189,4.189,0,0,0,1.891-3.563V76.141A1.079,1.079,0,0,0,125.456,75.694Z" transform="translate(-79.47 -72.564)" fill="#455a64"/>
      <path id="Path_2021" data-name="Path 2021" d="M93,127.26a2.082,2.082,0,0,1,.945-1.768l36.4-22.663a.868.868,0,0,1,.933,0,1.046,1.046,0,0,1,.469.882V178.5a2.1,2.1,0,0,1-.945,1.768l-36.384,22.7a.868.868,0,0,1-.933,0,1.046,1.046,0,0,1-.469-.882Z" transform="translate(-87.535 -89.374)" fill="#006f69"/>
      <path id="Path_2022" data-name="Path 2022" d="M93,127.26a2.082,2.082,0,0,1,.945-1.768l36.4-22.663a.868.868,0,0,1,.933,0,1.046,1.046,0,0,1,.469.882V178.5a2.1,2.1,0,0,1-.945,1.768l-36.384,22.7a.868.868,0,0,1-.933,0,1.046,1.046,0,0,1-.469-.882Z" transform="translate(-87.535 -89.374)" opacity="0.2"/>
      <path id="Path_2023" data-name="Path 2023" d="M93,127.26a2.082,2.082,0,0,1,.945-1.768l36.4-22.663a.868.868,0,0,1,.933,0,1.046,1.046,0,0,1,.469.882V178.5a2.1,2.1,0,0,1-.945,1.768l-36.384,22.7a.868.868,0,0,1-.933,0,1.046,1.046,0,0,1-.469-.882Z" transform="translate(-87.535 -89.374)" fill="#fff" opacity="0.1"/>
      <path id="Path_2024" data-name="Path 2024" d="M79.51,133.808v92.75c0,2.36,2.488,4.615,4.827,3.536h0a.862.862,0,0,1-.851-.122,1.048,1.048,0,0,1-.4-.833V136.372a4.36,4.36,0,0,1,.658-2.263L79.9,132A4.412,4.412,0,0,0,79.51,133.808Z" transform="translate(-79.494 -105.725)" opacity="0.3"/>
      <path id="Path_2025" data-name="Path 2025" d="M121.726,72.559a1.614,1.614,0,0,0-.566.124L81.977,97.065a3.924,3.924,0,0,0-1.507,1.768l3.85,2.108a3.9,3.9,0,0,1,1.264-1.326l39.184-24.391a.859.859,0,0,1,.739-.089.959.959,0,0,1,.562.531h0A5.279,5.279,0,0,0,121.726,72.559Z" transform="translate(-80.066 -72.558)" fill="#fff" opacity="0.1"/>
      <path id="Path_2026" data-name="Path 2026" d="M140.878,113.186c.279-.172.5-.035.5.309a1.256,1.256,0,0,1-.5.95l-7.675,4.862c-.275.177-.5.031-.5-.318a1.224,1.224,0,0,1,.493-.937Z" transform="translate(-111.203 -95.186)" fill="#263238"/>
      <path id="Path_2027" data-name="Path 2027" d="M128.261,127c.275-.172.5-.035.5.314a1.243,1.243,0,0,1-.5.946c-.275.172-.5.031-.5-.314A1.219,1.219,0,0,1,128.261,127Z" transform="translate(-108.253 -102.892)" fill="#263238"/>
      <path id="Path_2028" data-name="Path 2028" d="M139.722,111.5c.549-.349.994-.071.994.619a2.45,2.45,0,0,1-.99,1.887c-.549.349-1.006.066-1.006-.628A2.455,2.455,0,0,1,139.722,111.5Z" transform="translate(-114.786 -94.203)" fill="#263238"/>
      <path id="Path_2029" data-name="Path 2029" d="M138.172,308.835c1.123-.707,2.02-.141,2.02,1.264a5.008,5.008,0,0,1-2.02,3.85c-1.119.707-2.048.128-2.052-1.282A5,5,0,0,1,138.172,308.835Z" transform="translate(-113.236 -204.225)" fill="#263238"/>
      <path id="Path_2030" data-name="Path 2030" d="M181.509,100.34l13.234,12.019-4.823,3.05L176.69,103.39Z" transform="translate(-137.418 -88.06)" fill="#006f69"/>
      <path id="Path_2031" data-name="Path 2031" d="M157.639,114.14l13.229,12.014-4.823,3.05L152.82,117.19Z" transform="translate(-123.19 -95.76)" fill="#006f69"/>
      <path id="Path_2032" data-name="Path 2032" d="M145.7,121.04l13.225,12.014-4.823,3.05L140.88,124.09Z" transform="translate(-116.073 -99.61)" fill="#fff"/>
      <path id="Path_2033" data-name="Path 2033" d="M169.573,107.24l13.23,12.019-4.823,3.046L164.75,110.29Z" transform="translate(-130.301 -91.91)" fill="#fff"/>
      <path id="Path_2034" data-name="Path 2034" d="M109.893,141.73l13.221,12.014-4.823,3.05L105.07,144.78Z" transform="translate(-94.729 -111.155)" fill="#006f69"/>
      <path id="Path_2035" data-name="Path 2035" d="M133.763,127.94l13.225,12.014L142.165,143,128.94,130.986Z" transform="translate(-108.956 -103.46)" fill="#006f69"/>
      <path id="Path_2036" data-name="Path 2036" d="M92.91,151.737l4.912-3.107,13.221,12.014-4.924,3.112Z" transform="translate(-87.481 -115.005)" fill="#fff"/>
      <path id="Path_2037" data-name="Path 2037" d="M121.829,134.83l13.225,12.014-4.823,3.05L117.01,137.88Z" transform="translate(-101.846 -107.305)" fill="#fff"/>
      <path id="Path_2038" data-name="Path 2038" d="M214.263,127.53l-4.823,3.05h0a2.08,2.08,0,0,0,.929,1.766,1.724,1.724,0,0,0,1.862,0h0a4.555,4.555,0,0,0,2.02-3.854Z" transform="translate(-156.938 -103.231)" fill="#006f69"/>
      <path id="Path_2039" data-name="Path 2039" d="M202.323,134.43l-4.823,3.05h0a2.08,2.08,0,0,0,.929,1.766,1.724,1.724,0,0,0,1.862,0h0a4.546,4.546,0,0,0,2.02-3.854Z" transform="translate(-149.821 -107.081)" fill="#e0e0e0"/>
      <path id="Path_2040" data-name="Path 2040" d="M190.383,141.33l-4.823,3.046h0a2.08,2.08,0,0,0,.929,1.766,1.724,1.724,0,0,0,1.862,0h0a4.546,4.546,0,0,0,2.02-3.854Z" transform="translate(-142.704 -110.931)" fill="#006f69"/>
      <path id="Path_2041" data-name="Path 2041" d="M178.443,148.22l-4.823,3.05h0a2.076,2.076,0,0,0,.927,1.77,1.721,1.721,0,0,0,1.864,0h0a4.541,4.541,0,0,0,2.02-3.85Z" transform="translate(-135.588 -114.776)" fill="#e0e0e0"/>
      <path id="Path_2042" data-name="Path 2042" d="M166.5,155.12l-4.823,3.041h0a2.08,2.08,0,0,0,.929,1.766,1.724,1.724,0,0,0,1.862,0h0a4.546,4.546,0,0,0,2.02-3.854Z" transform="translate(-128.471 -118.626)" fill="#006f69"/>
      <path id="Path_2043" data-name="Path 2043" d="M154.563,162l-4.823,3.046h0a2.08,2.08,0,0,0,.929,1.766,1.724,1.724,0,0,0,1.862,0h0a4.555,4.555,0,0,0,2.02-3.854Z" transform="translate(-121.354 -122.465)" fill="#e0e0e0"/>
      <path id="Path_2044" data-name="Path 2044" d="M142.623,168.91l-4.823,3.05h0a2.076,2.076,0,0,0,.927,1.769,1.721,1.721,0,0,0,1.864,0h0a4.514,4.514,0,0,0,2.02-3.854Z" transform="translate(-114.237 -126.32)" fill="#006f69"/>
      <path id="Path_2045" data-name="Path 2045" d="M214.263,127.53l-4.823,3.05h0a2.08,2.08,0,0,0,.929,1.766,1.724,1.724,0,0,0,1.862,0h0a4.555,4.555,0,0,0,2.02-3.854Z" transform="translate(-156.938 -103.231)" opacity="0.2"/>
      <path id="Path_2046" data-name="Path 2046" d="M190.383,141.33l-4.823,3.046h0a2.08,2.08,0,0,0,.929,1.766,1.724,1.724,0,0,0,1.862,0h0a4.546,4.546,0,0,0,2.02-3.854Z" transform="translate(-142.704 -110.931)" opacity="0.2"/>
      <path id="Path_2047" data-name="Path 2047" d="M166.5,155.12l-4.823,3.041h0a2.08,2.08,0,0,0,.929,1.766,1.724,1.724,0,0,0,1.862,0h0a4.546,4.546,0,0,0,2.02-3.854Z" transform="translate(-128.471 -118.626)" opacity="0.2"/>
      <path id="Path_2048" data-name="Path 2048" d="M142.623,168.91l-4.823,3.05h0a2.076,2.076,0,0,0,.927,1.769,1.721,1.721,0,0,0,1.864,0h0a4.514,4.514,0,0,0,2.02-3.854Z" transform="translate(-114.237 -126.32)" opacity="0.2"/>
      <path id="Path_2049" data-name="Path 2049" d="M130.534,175.81,125.61,178.9h0a2.076,2.076,0,0,0,.926,1.766,1.721,1.721,0,0,0,1.861,0h0a4.773,4.773,0,0,0,2.137-4.053Z" transform="translate(-106.972 -130.17)" fill="#e0e0e0"/>
      <path id="Path_2050" data-name="Path 2050" d="M135.294,211a11.152,11.152,0,0,0-4.1,1.384,14.4,14.4,0,0,0-7.033,12.642,23.361,23.361,0,0,1,1.369-4.323,18.02,18.02,0,0,1,6.039-7.612A19.663,19.663,0,0,1,135.294,211Z" transform="translate(-106.109 -149.806)" fill="#006f69"/>
      <path id="Path_2051" data-name="Path 2051" d="M132.289,255.1a6.934,6.934,0,0,1-2.307-.442A6.719,6.719,0,0,1,126.177,251a8.669,8.669,0,0,1-.7-2.444,6.249,6.249,0,0,0,.311,2.626,5.851,5.851,0,0,0,4.08,3.916,4.812,4.812,0,0,0,2.42,0Z" transform="translate(-106.876 -170.763)" fill="#006f69"/>
      <path id="Path_2052" data-name="Path 2052" d="M151.52,231.2a21.971,21.971,0,0,1-.048,3.536,19.057,19.057,0,0,1-2.327,7.488,20.063,20.063,0,0,1-1.935,2.851,10.566,10.566,0,0,0,2.424-2.493,13.666,13.666,0,0,0,2.424-7.8A12.042,12.042,0,0,0,151.52,231.2Z" transform="translate(-119.846 -161.077)" fill="#006f69"/>
      <path id="Path_2053" data-name="Path 2053" d="M121.253,220.16a12.285,12.285,0,0,0-2.355,3.58,14.668,14.668,0,0,0-.638,9.959,12.878,12.878,0,0,0,1.878,3.907,22.669,22.669,0,0,1-1.212-4.1,18.927,18.927,0,0,1,.606-9.464A21.459,21.459,0,0,1,121.253,220.16Z" transform="translate(-102.242 -154.917)" fill="#006f69"/>
      <path id="Path_2054" data-name="Path 2054" d="M148.738,213.167a7.206,7.206,0,0,0-1.147-3.346,6.392,6.392,0,0,0-6.738-2.992,6.066,6.066,0,0,0-2.953,1.529,7.861,7.861,0,0,1,3.03-.911,7.013,7.013,0,0,1,6.217,2.758A9.412,9.412,0,0,1,148.738,213.167Z" transform="translate(-114.297 -147.402)" fill="#006f69"/>
      <path id="Path_2055" data-name="Path 2055" d="M206.154,189.963h0a5.2,5.2,0,0,1,5.538,4.571l1.874,11.493,11.755,9-2.626,3.5-11.181-6.427a6,6,0,0,1-2.751-3.66l-3.6-13.3Z" transform="translate(-154.387 -138.052)" fill="#ffa8a7"/>
      <path id="Path_2056" data-name="Path 2056" d="M210.516,202.313a5.77,5.77,0,0,0,2.371-2.727l-1.054-5.269a5.174,5.174,0,0,0-5.5-4.354l-.178.022-.994,5.176,1.551,7.62A5.059,5.059,0,0,0,210.516,202.313Z" transform="translate(-154.387 -138.051)" fill="#455a64"/>
      <path id="Path_2057" data-name="Path 2057" d="M212.805,214.486a5.059,5.059,0,0,1-3.805.469l.4,1.879c1.458.358,5.195.239,6.168-3.138l-.4-1.945A5.775,5.775,0,0,1,212.805,214.486Z" transform="translate(-156.676 -150.224)" fill="#455a64"/>
      <path id="Path_2058" data-name="Path 2058" d="M210.516,202.313a5.77,5.77,0,0,0,2.371-2.727l-1.054-5.269a5.174,5.174,0,0,0-5.5-4.354l-.178.022-.994,5.176,1.551,7.62A5.059,5.059,0,0,0,210.516,202.313Z" transform="translate(-154.387 -138.051)" fill="#fff" opacity="0.2"/>
      <path id="Path_2059" data-name="Path 2059" d="M212.805,214.486a5.059,5.059,0,0,1-3.805.469l.4,1.879c1.458.358,5.195.239,6.168-3.138l-.4-1.945A5.775,5.775,0,0,1,212.805,214.486Z" transform="translate(-156.676 -150.224)" fill="#fff" opacity="0.5"/>
      <path id="Path_2060" data-name="Path 2060" d="M164.755,194.963s-.469-3.912-2.6-4.933c0,0-5.106,1.675-9.339,3.435a46.937,46.937,0,0,0-4.912,2.3,41.275,41.275,0,0,1-5.017,4.35,5.776,5.776,0,0,1-2.02.663h0a6.679,6.679,0,0,0-2.513,1c-3.886,2.458-7.025,8.4-7.013,13.292,0,3.2,1.373,5.145,3.405,5.415h.093a4.171,4.171,0,0,0,.965,0c3.535-.035,9.2-.066,11.428-.765C157.629,216.379,165.805,208.14,164.755,194.963Z" transform="translate(-110.387 -138.105)" fill="#455a64"/>
      <path id="Path_2061" data-name="Path 2061" d="M188.948,193.743l1.523-3.023,6.128,4.517-2.424,3.563a3.762,3.762,0,0,1-3.288.146,4.465,4.465,0,0,1-2.222-2.723,3.461,3.461,0,0,1,.283-2.48Z" transform="translate(-144.489 -138.49)" fill="#ffa8a7"/>
      <path id="Path_2062" data-name="Path 2062" d="M194.72,191.67a6.363,6.363,0,0,0,4.262,5.994l1.293-1.9Z" transform="translate(-148.164 -139.02)" opacity="0.2"/>
      <path id="Path_2063" data-name="Path 2063" d="M187.409,169.792a13.439,13.439,0,0,1-.2-4.4,4.094,4.094,0,0,1,2.424-3.289,4.687,4.687,0,0,1,2.735-2.621,11.459,11.459,0,0,1,3.591-.477,15.928,15.928,0,0,1,4,.243,5.816,5.816,0,0,1,3.425,2.126,6.706,6.706,0,0,1,.994,4.8,14.851,14.851,0,0,1-1.66,4.7c-2.569.2-5.187.522-7.756.721a18.933,18.933,0,0,1-3.939.04A7.065,7.065,0,0,1,187.409,169.792Z" transform="translate(-143.621 -120.776)" fill="#263238"/>
      <path id="Path_2064" data-name="Path 2064" d="M201.87,168.068a26.145,26.145,0,0,1-1.26,12.841,4.664,4.664,0,0,1-1.6,2.418,4.135,4.135,0,0,1-2.828.261,13.639,13.639,0,0,1-4.5-1.384,6.512,6.512,0,0,1-3.11-3.669,2.6,2.6,0,0,1-2.727-1.171,5.962,5.962,0,0,1-.885-3.253c0-.738.125-1.609.731-1.932a1.542,1.542,0,0,1,1.725.469,5.667,5.667,0,0,1,1.68,2.758c.444-1.8,1.135-3.536,1.579-5.3a3.166,3.166,0,0,1,.957-1.87,2.863,2.863,0,0,1,2.379,0A14.326,14.326,0,0,0,201.87,168.068Z" transform="translate(-142.351 -125.792)" fill="#ffa8a7"/>
      <path id="Path_2065" data-name="Path 2065" d="M214.428,180.53l1.919,3.532-2.286.473Z" transform="translate(-159.692 -132.804)" fill="#f28f8f"/>
      <path id="Path_2066" data-name="Path 2066" d="M208.509,192.34l1.737.924a1.074,1.074,0,0,1-1.317.411A1.178,1.178,0,0,1,208.509,192.34Z" transform="translate(-156.346 -139.394)" fill="#f28f8f"/>
      <path id="Path_2067" data-name="Path 2067" d="M208.509,192.34l1.737.924a1.074,1.074,0,0,1-1.317.411A1.178,1.178,0,0,1,208.509,192.34Z" transform="translate(-156.346 -139.394)" opacity="0.3"/>
      <path id="Path_2068" data-name="Path 2068" d="M209.546,194.155a.959.959,0,0,1-.6-.062,1.038,1.038,0,0,1-.465-1,1.056,1.056,0,0,1,.687.261A1.247,1.247,0,0,1,209.546,194.155Z" transform="translate(-156.361 -139.812)" fill="#f28f8f"/>
      <path id="Path_2069" data-name="Path 2069" d="M206.765,180.031a.706.706,0,0,0,.59.789.677.677,0,0,0,.72-.646.706.706,0,0,0-.591-.788A.677.677,0,0,0,206.765,180.031Z" transform="translate(-155.342 -132.164)" fill="#263238"/>
      <path id="Path_2070" data-name="Path 2070" d="M220.405,180.876a.7.7,0,0,0,.585.784.672.672,0,0,0,.717-.639.7.7,0,0,0-.583-.786.616.616,0,0,0-.481.157A.737.737,0,0,0,220.405,180.876Z" transform="translate(-163.472 -132.637)" fill="#263238"/>
      <path id="Path_2071" data-name="Path 2071" d="M222.63,175.24l1.349,1.255a1.1,1.1,0,0,0-.182-1.154A1.032,1.032,0,0,0,222.63,175.24Z" transform="translate(-164.8 -129.777)" fill="#263238"/>
      <path id="Path_2072" data-name="Path 2072" d="M207.008,174.853l-1.547.937a1.074,1.074,0,0,1,.384-1.092,1.038,1.038,0,0,1,1.163.155Z" transform="translate(-154.55 -129.487)" fill="#263238"/>
      <path id="Path_2073" data-name="Path 2073" d="M204.816,158.9a49.109,49.109,0,0,1-16.966,0c.263-7.514,3.353-9.976,8.685-9.976S204.877,152.05,204.816,158.9Z" transform="translate(-144.069 -115.166)" fill="#455a64"/>
      <path id="Path_2074" data-name="Path 2074" d="M211.528,161.8a12.6,12.6,0,0,0-1.507-6.692l-2.234-.685a6.755,6.755,0,0,0-3.232-.186l-2.129.389a3.58,3.58,0,0,0-2.828,3.231l-.489,4.535h0A49.366,49.366,0,0,0,211.528,161.8Z" transform="translate(-150.781 -118.068)" fill="#455a64"/>
      <path id="Path_2075" data-name="Path 2075" d="M211.528,161.8a12.6,12.6,0,0,0-1.507-6.692l-2.234-.685a6.755,6.755,0,0,0-3.232-.186l-2.129.389a3.58,3.58,0,0,0-2.828,3.231l-.489,4.535h0A49.366,49.366,0,0,0,211.528,161.8Z" transform="translate(-150.781 -118.068)" fill="#fff" opacity="0.29"/>
      <path id="Path_2076" data-name="Path 2076" d="M212.254,157.18h-.986a7.549,7.549,0,0,0-.949.04,12.562,12.562,0,0,0-7.788,3.616l-3.32,3.262a49.365,49.365,0,0,0,12.377-.592l2.161-2.869a2.285,2.285,0,0,0,.246-2.242,1.935,1.935,0,0,0-1.74-1.214Z" transform="translate(-150.84 -119.775)" fill="#455a64"/>
      <path id="Path_2077" data-name="Path 2077" d="M212.254,157.18h-.986a7.549,7.549,0,0,0-.949.04,12.562,12.562,0,0,0-7.788,3.616l-3.32,3.262a49.365,49.365,0,0,0,12.377-.592l2.161-2.869a2.285,2.285,0,0,0,.246-2.242,1.935,1.935,0,0,0-1.74-1.214Z" transform="translate(-150.84 -119.775)" opacity="0.2"/>
      <path id="Path_2078" data-name="Path 2078" d="M229.186,235.969l-15.059,9.574-15.156-9.574,15.055-9.579Z" transform="translate(-150.697 -158.393)" fill="#006f69"/>
      <g id="Group_280" data-name="Group 280" transform="translate(48.273 67.997)" opacity="0.3">
        <path id="Path_2079" data-name="Path 2079" d="M229.186,235.969l-15.059,9.574-15.156-9.574,15.055-9.579Z" transform="translate(-198.97 -226.39)" fill="#fff"/>
      </g>
      <path id="Path_2080" data-name="Path 2080" d="M251.484,248.06l-.044,16.762L236.38,274.4l.044-16.761Z" transform="translate(-172.995 -170.484)" fill="#006f69"/>
      <g id="Group_281" data-name="Group 281" transform="translate(63.385 77.576)" opacity="0.1">
        <path id="Path_2081" data-name="Path 2081" d="M251.484,248.06l-.044,16.762L236.38,274.4l.044-16.761Z" transform="translate(-236.38 -248.06)" fill="#fff"/>
      </g>
      <path id="Path_2082" data-name="Path 2082" d="M214.061,257.634l-.044,16.761-15.156-9.574.044-16.762Z" transform="translate(-150.632 -170.484)" fill="#006f69"/>
      <path id="Path_2083" data-name="Path 2083" d="M239.112,238.9l5.1-3.408-2.6-1.644-5.118,3.342Z" transform="translate(-173.061 -162.555)" fill="#e0e0e0"/>
      <path id="Path_2084" data-name="Path 2084" d="M227.614,238.835l-2.622-1.711-5.2-3.395-2.593,1.649,5.167,3.457,2.626,1.755,6.932,4.641,2.779-1.768Z" transform="translate(-161.563 -162.488)" fill="#fff"/>
      <path id="Path_2085" data-name="Path 2085" d="M219.488,245.28l-7.118,4.646,2.787,1.764,6.956-4.655Z" transform="translate(-158.684 -168.933)" fill="#e0e0e0"/>
      <path id="Path_2086" data-name="Path 2086" d="M256.429,255.75l-2.779,1.768.024.013.04,16.678,2.812-1.786-.04-16.642Z" transform="translate(-183.289 -174.775)" fill="#e0e0e0"/>
      <path id="Path_2087" data-name="Path 2087" d="M215.056,257.554l-2.787-1.764-.024.013-.044,16.739,2.812,1.773.044-16.762Z" transform="translate(-158.583 -174.797)" fill="#fff"/>
      <path id="Path_2088" data-name="Path 2088" d="M215.056,257.554l-2.787-1.764-.024.013-.044,16.739,2.812,1.773.044-16.762Z" transform="translate(-158.583 -174.797)" opacity="0.2"/>
      <path id="Path_2089" data-name="Path 2089" d="M231.821,256.74l-3.151,2.108,3.151,1.993,3.143-2Z" transform="translate(-168.4 -175.327)" fill="#fff"/>
      <path id="Path_2090" data-name="Path 2090" d="M162.625,226.313s1.176-18.72,1.422-19.891a3.722,3.722,0,0,1,7.4.393c.23,1.848-2.464,19.789-2.464,19.789l9.76,11.3,1.975,1.985,1.761-.389,4.015.416a.513.513,0,0,1,.436.442h0a.548.548,0,0,1-.364.637l-2.654.707,1.915,1.432a2.21,2.21,0,0,0,.893.4l3,.623a.593.593,0,0,1,.448.632h0a.6.6,0,0,1-.355.53l-1.616.659a7.173,7.173,0,0,1-6.463-.5l-3.474-2.113a8.6,8.6,0,0,1-1.434-1.061l-12.454-11.272A5.592,5.592,0,0,1,162.625,226.313Z" transform="translate(-129.016 -145.48)" fill="#ffa8a7"/>
      <path id="Path_2091" data-name="Path 2091" d="M170.2,218.842l1.248-10.167a5.236,5.236,0,0,0-4.231-5.921,4.969,4.969,0,0,0-5.411,4.63l-1.042,10.374a10.74,10.74,0,0,0,9.436,1.07Z" transform="translate(-127.923 -145.183)" fill="#455a64"/>
      <path id="Path_2092" data-name="Path 2092" d="M170.2,218.842l1.248-10.167a5.236,5.236,0,0,0-4.231-5.921,4.969,4.969,0,0,0-5.411,4.63l-1.042,10.374a10.74,10.74,0,0,0,9.436,1.07Z" transform="translate(-127.923 -145.183)" fill="#fff" opacity="0.2"/>
      <path id="Path_2093" data-name="Path 2093" d="M164.8,238.393a11.2,11.2,0,0,1-4.443-1.613l-.238,2.391c4.2,3.536,9.343,1.353,9.343,1.353l.331-2.674A10.883,10.883,0,0,1,164.8,238.393Z" transform="translate(-127.541 -164.19)" fill="#455a64"/>
      <path id="Path_2094" data-name="Path 2094" d="M164.8,238.393a11.2,11.2,0,0,1-4.443-1.613l-.238,2.391c4.2,3.536,9.343,1.353,9.343,1.353l.331-2.674A10.883,10.883,0,0,1,164.8,238.393Z" transform="translate(-127.541 -164.19)" fill="#fff" opacity="0.5"/>
    </g>
    <g id="freepik--Plants--inject-34" transform="translate(22.481 131.841)">
      <path id="Path_2095" data-name="Path 2095" d="M441.862,317.77l6.552.212,6.552-.212c.279,4.862-.582,9.777-1.773,12.187h0a3.146,3.146,0,0,1-1.3,1.441,7.092,7.092,0,0,1-6.98,0,3.083,3.083,0,0,1-1.293-1.481C442.435,327.495,441.583,322.588,441.862,317.77Z" transform="translate(-274.964 -293.035)" fill="#fff"/>
      <path id="Path_2096" data-name="Path 2096" d="M443.876,309.594c-2.565,1.622-2.581,4.252-.032,5.874a9.442,9.442,0,0,0,9.267,0c2.569-1.618,2.581-4.252.028-5.874A9.423,9.423,0,0,0,443.876,309.594Z" transform="translate(-275.044 -287.794)" fill="#ebebeb"/>
      <path id="Path_2097" data-name="Path 2097" d="M447,311.393c-2.02,1.264-2.02,3.315-.024,4.584a7.356,7.356,0,0,0,7.231,0c2-1.264,2.02-3.32.02-4.584A7.359,7.359,0,0,0,447,311.393Z" transform="translate(-277.154 -288.948)" fill="#e0e0e0"/>
      <g id="Group_282" data-name="Group 282" transform="translate(168.329 21.497)" opacity="0.15">
        <path id="Path_2098" data-name="Path 2098" d="M447,311.393c-2.02,1.264-2.02,3.315-.024,4.584a7.356,7.356,0,0,0,7.231,0c2-1.264,2.02-3.32.02-4.584A7.359,7.359,0,0,0,447,311.393Z" transform="translate(-445.482 -310.445)"/>
      </g>
      <path id="Path_2099" data-name="Path 2099" d="M453.962,271.88c1.066-1.45,2.3-2.749,3.28-4.27a4.86,4.86,0,0,0,.941-3.536,2.99,2.99,0,0,0-2.29-2.21,4.093,4.093,0,0,0-3.078.751,9.819,9.819,0,0,0-2.327,2.422,26.994,26.994,0,0,0-4.872,18.074,4.056,4.056,0,0,0,.61,2.077,1.8,1.8,0,0,0,1.959.654c1.786-.579,1.547-3.218,1.838-4.769a23.027,23.027,0,0,1,2.052-6.087,21.277,21.277,0,0,1,1.886-3.107Z" transform="translate(-277.172 -261.811)" fill="#006f69"/>
      <path id="Path_2100" data-name="Path 2100" d="M453.962,271.88c1.066-1.45,2.3-2.749,3.28-4.27a4.86,4.86,0,0,0,.941-3.536,2.99,2.99,0,0,0-2.29-2.21,4.093,4.093,0,0,0-3.078.751,9.819,9.819,0,0,0-2.327,2.422,26.994,26.994,0,0,0-4.872,18.074,4.056,4.056,0,0,0,.61,2.077,1.8,1.8,0,0,0,1.959.654c1.786-.579,1.547-3.218,1.838-4.769a23.027,23.027,0,0,1,2.052-6.087,21.277,21.277,0,0,1,1.886-3.107Z" transform="translate(-277.172 -261.811)" fill="#fff" opacity="0.2"/>
      <path id="Path_2101" data-name="Path 2101" d="M451.576,286a.169.169,0,0,0,.125-.164c.125-3.134,1.058-13.831,7.8-19.891a.169.169,0,0,0,.058-.115.173.173,0,0,0-.037-.124.151.151,0,0,0-.1-.063.144.144,0,0,0-.114.037c-6.839,6.162-7.784,16.987-7.91,20.156a.167.167,0,0,0,.15.177Z" transform="translate(-280.675 -263.95)" fill="#f0f0f0"/>
      <path id="Path_2102" data-name="Path 2102" d="M449.13,297a5.219,5.219,0,0,0,2.185,3.32,5.667,5.667,0,0,0,3.312.61,13.61,13.61,0,0,0,3.361-.884c.541-.2,1.139-.464,1.212-1.2a1.392,1.392,0,0,0-.384-1.03,3.773,3.773,0,0,0-.348-.332.4.4,0,0,1-.124-.408.352.352,0,0,1,.306-.269,7.715,7.715,0,0,0,.957-.133,4.021,4.021,0,0,0,2.02-.995,3.684,3.684,0,0,0,.929-1.5,1.527,1.527,0,0,0-.133-1.481,1.384,1.384,0,0,0-.743-.354c-.238-.057-.481-.106-.719-.146a.336.336,0,0,1-.27-.3.355.355,0,0,1,.193-.366l1.018-.464a1.876,1.876,0,0,0,.772-.526,1.989,1.989,0,0,0,.194-1.529c-.125-.7-.343-1.37-.493-2.06a4.824,4.824,0,0,1-.085-2.091,14.808,14.808,0,0,0-5.692.416,3.964,3.964,0,0,0-1.555.743,2.61,2.61,0,0,0-.731,2.294.159.159,0,0,1-.106.165.141.141,0,0,1-.169-.081l-.634-1.326a.74.74,0,0,0-1.01-.354A4.787,4.787,0,0,0,450.907,288a2.988,2.988,0,0,0-.634,2.078,19.857,19.857,0,0,0,.473,3.054.292.292,0,0,1-.1.311.237.237,0,0,1-.3-.015h-.028a.816.816,0,0,0-.614-.195c-.574.075-.719.712-.759,1.255A11.5,11.5,0,0,0,449.13,297Z" transform="translate(-279.211 -274.613)" fill="#006f69"/>
      <path id="Path_2103" data-name="Path 2103" d="M449.13,297a5.219,5.219,0,0,0,2.185,3.32,5.667,5.667,0,0,0,3.312.61,13.61,13.61,0,0,0,3.361-.884c.541-.2,1.139-.464,1.212-1.2a1.392,1.392,0,0,0-.384-1.03,3.773,3.773,0,0,0-.348-.332.4.4,0,0,1-.124-.408.352.352,0,0,1,.306-.269,7.715,7.715,0,0,0,.957-.133,4.021,4.021,0,0,0,2.02-.995,3.684,3.684,0,0,0,.929-1.5,1.527,1.527,0,0,0-.133-1.481,1.384,1.384,0,0,0-.743-.354c-.238-.057-.481-.106-.719-.146a.336.336,0,0,1-.27-.3.355.355,0,0,1,.193-.366l1.018-.464a1.876,1.876,0,0,0,.772-.526,1.989,1.989,0,0,0,.194-1.529c-.125-.7-.343-1.37-.493-2.06a4.824,4.824,0,0,1-.085-2.091,14.808,14.808,0,0,0-5.692.416,3.964,3.964,0,0,0-1.555.743,2.61,2.61,0,0,0-.731,2.294.159.159,0,0,1-.106.165.141.141,0,0,1-.169-.081l-.634-1.326a.74.74,0,0,0-1.01-.354A4.787,4.787,0,0,0,450.907,288a2.988,2.988,0,0,0-.634,2.078,19.857,19.857,0,0,0,.473,3.054.292.292,0,0,1-.1.311.237.237,0,0,1-.3-.015h-.028a.816.816,0,0,0-.614-.195c-.574.075-.719.712-.759,1.255A11.5,11.5,0,0,0,449.13,297Z" transform="translate(-279.211 -274.613)" opacity="0.2"/>
      <path id="Path_2104" data-name="Path 2104" d="M449.13,297a5.219,5.219,0,0,0,2.185,3.32,5.667,5.667,0,0,0,3.312.61,13.61,13.61,0,0,0,3.361-.884c.541-.2,1.139-.464,1.212-1.2a1.392,1.392,0,0,0-.384-1.03,3.773,3.773,0,0,0-.348-.332.4.4,0,0,1-.124-.408.352.352,0,0,1,.306-.269,7.715,7.715,0,0,0,.957-.133,4.021,4.021,0,0,0,2.02-.995,3.684,3.684,0,0,0,.929-1.5,1.527,1.527,0,0,0-.133-1.481,1.384,1.384,0,0,0-.743-.354c-.238-.057-.481-.106-.719-.146a.336.336,0,0,1-.27-.3.355.355,0,0,1,.193-.366l1.018-.464a1.876,1.876,0,0,0,.772-.526,1.989,1.989,0,0,0,.194-1.529c-.125-.7-.343-1.37-.493-2.06a4.824,4.824,0,0,1-.085-2.091,14.808,14.808,0,0,0-5.692.416,3.964,3.964,0,0,0-1.555.743,2.61,2.61,0,0,0-.731,2.294.159.159,0,0,1-.106.165.141.141,0,0,1-.169-.081l-.634-1.326a.74.74,0,0,0-1.01-.354A4.787,4.787,0,0,0,450.907,288a2.988,2.988,0,0,0-.634,2.078,19.857,19.857,0,0,0,.473,3.054.292.292,0,0,1-.1.311.237.237,0,0,1-.3-.015h-.028a.816.816,0,0,0-.614-.195c-.574.075-.719.712-.759,1.255A11.5,11.5,0,0,0,449.13,297Z" transform="translate(-279.211 -274.613)" fill="#fff" opacity="0.2"/>
      <path id="Path_2105" data-name="Path 2105" d="M456.886,301.368a26.759,26.759,0,0,1,1.531-4.862.189.189,0,0,1,.052-.128l.109-.252a16.84,16.84,0,0,0-1.519-5.561.187.187,0,0,1,.056-.234.151.151,0,0,1,.214.066,16.934,16.934,0,0,1,1.495,5.167,22.3,22.3,0,0,1,6.556-8.6.149.149,0,0,1,.218.044.181.181,0,0,1,.024.126.17.17,0,0,1-.065.108,22.352,22.352,0,0,0-6.629,8.867,8.841,8.841,0,0,1,5.425-.8.177.177,0,0,1,.125.2.161.161,0,0,1-.125.133h-.061a8.6,8.6,0,0,0-5.583.977,26.37,26.37,0,0,0-1.519,4.814.169.169,0,0,1-.125.133h-.061A.168.168,0,0,1,456.886,301.368Z" transform="translate(-283.949 -275.828)" fill="#f0f0f0"/>
      <path id="Path_2106" data-name="Path 2106" d="M65.239,350.91l-7.457.239-7.453-.239c-.323,5.508.662,11.121,2.02,13.866h0a3.569,3.569,0,0,0,1.478,1.644,8.064,8.064,0,0,0,7.938,0,3.478,3.478,0,0,0,1.474-1.684C64.584,361.974,65.558,356.391,65.239,350.91Z" transform="translate(-41.587 -311.526)" fill="#fff"/>
      <path id="Path_2107" data-name="Path 2107" d="M63.129,341.6c2.921,1.848,2.937,4.836.036,6.683a10.731,10.731,0,0,1-10.543,0c-2.921-1.843-2.937-4.836-.036-6.683A10.731,10.731,0,0,1,63.129,341.6Z" transform="translate(-41.679 -305.561)" fill="#ebebeb"/>
      <path id="Path_2108" data-name="Path 2108" d="M64.373,343.64c2.278,1.441,2.29,3.775.028,5.216a8.375,8.375,0,0,1-8.225,0c-2.278-1.437-2.29-3.775-.028-5.216A8.387,8.387,0,0,1,64.373,343.64Z" transform="translate(-44.086 -306.869)" fill="#e0e0e0"/>
      <g id="Group_283" data-name="Group 283" transform="translate(10.374 35.694)" opacity="0.15">
        <path id="Path_2109" data-name="Path 2109" d="M64.373,343.64c2.278,1.441,2.29,3.775.028,5.216a8.375,8.375,0,0,1-8.225,0c-2.278-1.437-2.29-3.775-.028-5.216A8.387,8.387,0,0,1,64.373,343.64Z" transform="translate(-54.46 -342.563)"/>
      </g>
      <path id="Path_2110" data-name="Path 2110" d="M76.821,272.16c-16.8,6.02-16.966,18.318-13.165,27.074.953,1.768,3.846,2.727,6.358-8.164l-4.411.619,5.142-2.855,1.337-4.367-4.29.349,5.445-2.506a92.987,92.987,0,0,1,3.583-10.149Z" transform="translate(-48.366 -267.586)" fill="#006f69"/>
      <path id="Path_2111" data-name="Path 2111" d="M76.821,272.16c-16.8,6.02-16.966,18.318-13.165,27.074.953,1.768,3.846,2.727,6.358-8.164l-4.411.619,5.142-2.855,1.337-4.367-4.29.349,5.445-2.506a92.987,92.987,0,0,1,3.583-10.149Z" transform="translate(-48.366 -267.586)" opacity="0.2"/>
      <path id="Path_2112" data-name="Path 2112" d="M76.821,272.16c-16.8,6.02-16.966,18.318-13.165,27.074.953,1.768,3.846,2.727,6.358-8.164l-4.411.619,5.142-2.855,1.337-4.367-4.29.349,5.445-2.506a92.987,92.987,0,0,1,3.583-10.149Z" transform="translate(-48.366 -267.586)" fill="#fff" opacity="0.2"/>
      <path id="Path_2113" data-name="Path 2113" d="M75.072,279.12c-8.859,7.355-9.659,15.793-7.154,24.6C67.033,295.966,66.076,288.124,75.072,279.12Z" transform="translate(-51.372 -271.469)" fill="#fff"/>
      <path id="Path_2114" data-name="Path 2114" d="M28.78,300.42c16.562,2.55,18.582,13.977,16.368,22.822-.618,1.826-3.167,3.24-7.162-6.449l4.213-.2-5.251-1.742-1.907-3.828,4.04-.442-5.449-1.326a86.313,86.313,0,0,0-4.851-8.832Z" transform="translate(-28.78 -283.354)" fill="#006f69"/>
      <path id="Path_2115" data-name="Path 2115" d="M28.78,300.42c16.562,2.55,18.582,13.977,16.368,22.822-.618,1.826-3.167,3.24-7.162-6.449l4.213-.2-5.251-1.742-1.907-3.828,4.04-.442-5.449-1.326a86.313,86.313,0,0,0-4.851-8.832Z" transform="translate(-28.78 -283.354)" fill="#fff" opacity="0.2"/>
      <path id="Path_2116" data-name="Path 2116" d="M28.78,300.42c16.562,2.55,18.582,13.977,16.368,22.822-.618,1.826-3.167,3.24-7.162-6.449l4.213-.2-5.251-1.742-1.907-3.828,4.04-.442-5.449-1.326a86.313,86.313,0,0,0-4.851-8.832Z" transform="translate(-28.78 -283.354)" opacity="0.1"/>
      <path id="Path_2117" data-name="Path 2117" d="M40.89,305c9.368,5.242,11.392,12.951,10.4,21.606C50.936,319.2,50.629,311.728,40.89,305Z" transform="translate(-35.998 -285.91)" fill="#fff"/>
      <path id="Path_2118" data-name="Path 2118" d="M85.7,310.11c-15.185.27-18.178,10.321-17.087,18.565.372,1.719,2.525,3.306,7.118-4.937l-3.769-.716,4.884-.915,2.113-3.2-3.6-.906,5.049-.544a75.391,75.391,0,0,1,5.3-7.342Z" transform="translate(-52.401 -288.761)" fill="#006f69"/>
      <path id="Path_2119" data-name="Path 2119" d="M82.7,312.83c-8.98,3.576-11.593,10.281-11.581,18.2C72.19,324.424,73.225,317.723,82.7,312.83Z" transform="translate(-54.016 -290.279)" fill="#fff"/>
      <path id="Path_2120" data-name="Path 2120" d="M85.7,310.11c-15.185.27-18.178,10.321-17.087,18.565.372,1.719,2.525,3.306,7.118-4.937l-3.769-.716,4.884-.915,2.113-3.2-3.6-.906,5.049-.544a75.391,75.391,0,0,1,5.3-7.342Z" transform="translate(-52.401 -288.761)" fill="#fff" opacity="0.2"/>
    </g>
    <g id="freepik--character-1--inject-34" transform="translate(120.029 94.222)">
      <path id="Path_2121" data-name="Path 2121" d="M303.312,253.123c-3.987,3.032-8.483,5.128-11.808,9.19-6.217,7.585-6.362,19.794-1.479,28.471s13.969,13.888,23.219,15.082a35.014,35.014,0,0,0,27.5-8.4A37.8,37.8,0,0,0,353.2,269.62c0-10.675-5.009-21.341-13.193-27.184-7.469-5.3-18.2-6.847-25.692-.751-3.785,3.094-6.314,7.634-10.1,10.728C303.942,252.651,303.635,252.885,303.312,253.123Z" transform="translate(-279.989 -210.762)" fill="#006f69"/>
      <path id="Path_2122" data-name="Path 2122" d="M303.312,253.123c-3.987,3.032-8.483,5.128-11.808,9.19-6.217,7.585-6.362,19.794-1.479,28.471s13.969,13.888,23.219,15.082a35.014,35.014,0,0,0,27.5-8.4A37.8,37.8,0,0,0,353.2,269.62c0-10.675-5.009-21.341-13.193-27.184-7.469-5.3-18.2-6.847-25.692-.751-3.785,3.094-6.314,7.634-10.1,10.728C303.942,252.651,303.635,252.885,303.312,253.123Z" transform="translate(-279.989 -210.762)" opacity="0.2"/>
      <path id="Path_2123" data-name="Path 2123" d="M303.312,253.123c-3.987,3.032-8.483,5.128-11.808,9.19-6.217,7.585-6.362,19.794-1.479,28.471s13.969,13.888,23.219,15.082a35.014,35.014,0,0,0,27.5-8.4A37.8,37.8,0,0,0,353.2,269.62c0-10.675-5.009-21.341-13.193-27.184-7.469-5.3-18.2-6.847-25.692-.751-3.785,3.094-6.314,7.634-10.1,10.728C303.942,252.651,303.635,252.885,303.312,253.123Z" transform="translate(-279.989 -210.762)" fill="#fff" opacity="0.1"/>
      <path id="Path_2124" data-name="Path 2124" d="M314.22,310.544a1.833,1.833,0,0,1,.028-.217,11.073,11.073,0,0,1,8.5-9.557,31.458,31.458,0,0,0,10.907-4.566c2.379-1.574,4.629-3.505,7.3-4.358a10.95,10.95,0,0,1,7.869.5,8.594,8.594,0,0,0-9.166-2.546,34.663,34.663,0,0,0,4.734-11.585c.735-4.182.21-8.774-2.092-12.2A11,11,0,0,0,333.862,261a10.757,10.757,0,0,0-8.893,3.968c-2.282,2.732-3.567,6.577-5.066,9.892a22.406,22.406,0,0,1-3.967,6.63c-2.674,2.741-6.528,3.726-9.291,6.347-3.147,2.975-4.5,7.727-4.516,12.275a39.138,39.138,0,0,0,1.212,9.075,31.134,31.134,0,0,0,11.383,7.616A14.71,14.71,0,0,1,314.22,310.544Z" transform="translate(-289.258 -223.729)" opacity="0.1"/>
      <path id="Path_2125" data-name="Path 2125" d="M386.55,268.292C386.289,253.048,376,240.241,362.22,238a19.264,19.264,0,0,0-2.751.5c14.563.846,26.054,13.86,26.326,29.814a36.7,36.7,0,0,1-11.9,27.131,42.694,42.694,0,0,1-22.654,10.489c.186.031.376.057.561.08.784.1,1.571.172,2.363.221a42.685,42.685,0,0,0,20.2-10.167A37.55,37.55,0,0,0,386.55,268.292Z" transform="translate(-318.529 -210.906)" fill="#fff"/>
      <path id="Path_2126" data-name="Path 2126" d="M323.34,383.528l1,2.17a6.077,6.077,0,0,0,1.668-2.586c-.456-1.768-.99-3.567-1.256-4.442-.133,1.22-.893,2.268-1.212,3.457A6.578,6.578,0,0,0,323.34,383.528Z" transform="translate(-301.9 -289.397)" fill="#37474f"/>
      <path id="Path_2127" data-name="Path 2127" d="M323.377,391.883l.953-.053-1-2.17C323.3,390.394,323.357,391.136,323.377,391.883Z" transform="translate(-301.888 -295.529)" fill="#263238"/>
      <path id="Path_2128" data-name="Path 2128" d="M310.105,370.972a9.42,9.42,0,0,0-1.184-1.512,5.719,5.719,0,0,1-.02,2.9c-.295,1.255-.832,2.436-1.1,3.7-.327,1.538-.25,3.191-.848,4.632a4.63,4.63,0,0,1-3.171,2.767,1.845,1.845,0,0,1-1.511-.2,1.172,1.172,0,0,1-.4-.614,11.113,11.113,0,0,1-1.087,1.936,3.251,3.251,0,0,0-.925,2.21,1.68,1.68,0,0,0,1.325,1.326,3.929,3.929,0,0,0,1.886-.172,11.218,11.218,0,0,0,3.777-1.684,6.173,6.173,0,0,0,2.4-3.536,8.625,8.625,0,0,0,.145-2.144c0-.743-.077-1.49-.048-2.21a6.564,6.564,0,0,1,.2-1.4c.323-1.189,1.083-2.237,1.212-3.457,0-.066.02-.128.024-.194A4.245,4.245,0,0,0,310.105,370.972Z" transform="translate(-287.89 -284.258)" fill="#455a64"/>
      <path id="Path_2129" data-name="Path 2129" d="M310.105,370.972a9.42,9.42,0,0,0-1.184-1.512,5.719,5.719,0,0,1-.02,2.9c-.295,1.255-.832,2.436-1.1,3.7-.327,1.538-.25,3.191-.848,4.632a4.63,4.63,0,0,1-3.171,2.767,1.845,1.845,0,0,1-1.511-.2,1.172,1.172,0,0,1-.4-.614,11.113,11.113,0,0,1-1.087,1.936,3.251,3.251,0,0,0-.925,2.21,1.68,1.68,0,0,0,1.325,1.326,3.929,3.929,0,0,0,1.886-.172,11.218,11.218,0,0,0,3.777-1.684,6.173,6.173,0,0,0,2.4-3.536,8.625,8.625,0,0,0,.145-2.144c0-.743-.077-1.49-.048-2.21a6.564,6.564,0,0,1,.2-1.4c.323-1.189,1.083-2.237,1.212-3.457,0-.066.02-.128.024-.194A4.245,4.245,0,0,0,310.105,370.972Z" transform="translate(-287.89 -284.258)" opacity="0.1"/>
      <path id="Path_2130" data-name="Path 2130" d="M306.763,382.991a4.63,4.63,0,0,0,3.171-2.767c.6-1.441.521-3.094.848-4.632.271-1.264.808-2.444,1.1-3.7a5.719,5.719,0,0,0,.02-2.9c-.113-.124-.226-.247-.343-.367a39.408,39.408,0,0,0-5.191,3,44.26,44.26,0,0,1-.38,6.507,16.43,16.43,0,0,1-1.151,4.044,1.173,1.173,0,0,0,.4.615A1.845,1.845,0,0,0,306.763,382.991Z" transform="translate(-290.873 -283.795)" fill="#ab6160"/>
      <path id="Path_2131" data-name="Path 2131" d="M293,388.14a46.189,46.189,0,0,1-1.539,5.463s5.9.261,6.035-.035l1.733-2.935Z" transform="translate(-282.898 -294.681)" fill="#c48281"/>
      <path id="Path_2132" data-name="Path 2132" d="M311.146,291.26,296.1,300.428a8.444,8.444,0,0,0-3.7,8.624l2.921,17.239-2.4,8.332c2.068,3.032,6.815,3.187,6.815,3.187,2.65-5.813,4.593-8.279,6.1-13.15s2.509-8.23,2.509-8.23l12.523-3.739c5.852-1.741,10.145-7.207,10.838-13.8.214-2.069.222-3.479.222-3.479Z" transform="translate(-283.379 -240.624)" fill="#455a64"/>
      <path id="Path_2133" data-name="Path 2133" d="M314.631,303.53a8.241,8.241,0,0,0,1.685,5.021l-9.489,6.484a8.31,8.31,0,0,0-3.256,4.641l-3.761,13.46,3.393-14.989A6.788,6.788,0,0,1,305.966,314l8.677-5.844A6.034,6.034,0,0,1,314.631,303.53Z" transform="translate(-287.875 -247.47)" opacity="0.2"/>
      <path id="Path_2134" data-name="Path 2134" d="M299.39,414.523l.137,2.422a5.445,5.445,0,0,0,2.464-1.658c.214-1.826.372-3.709.444-4.628-.566,1.065-1.64,1.7-2.363,2.652A5.778,5.778,0,0,0,299.39,414.523Z" transform="translate(-287.624 -307.246)" fill="#37474f"/>
      <path id="Path_2135" data-name="Path 2135" d="M297.52,421.46l.893.362-.137-2.422C297.984,420.059,297.766,420.77,297.52,421.46Z" transform="translate(-286.51 -312.123)" fill="#263238"/>
      <path id="Path_2136" data-name="Path 2136" d="M285.4,402.316a10.414,10.414,0,0,0-.541-1.9,5.516,5.516,0,0,1-1.058,2.652c-.723,1.026-1.644,1.879-2.343,2.922-.856,1.277-1.382,2.829-2.444,3.894a4.274,4.274,0,0,1-3.914,1.185,1.968,1.968,0,0,1-1.313-.835,1.27,1.27,0,0,1-.162-.743,10.175,10.175,0,0,1-1.693,1.326c-.671.411-1.474.831-1.652,1.649a1.834,1.834,0,0,0,.743,1.768,4.03,4.03,0,0,0,1.794.654,10.744,10.744,0,0,0,4.08.075,5.54,5.54,0,0,0,3.466-2.21,8.212,8.212,0,0,0,.909-1.91c.246-.69.464-1.4.755-2.06a5.774,5.774,0,0,1,.683-1.207c.723-.955,1.8-1.591,2.363-2.652.028-.053.065-.106.093-.168A4.324,4.324,0,0,0,285.4,402.316Z" transform="translate(-270.264 -301.533)" fill="#455a64"/>
      <path id="Path_2137" data-name="Path 2137" d="M280.057,410.469a4.273,4.273,0,0,0,3.914-1.185c1.062-1.065,1.588-2.617,2.444-3.894.7-1.043,1.616-1.9,2.343-2.922a5.516,5.516,0,0,0,1.058-2.652l-.182-.486a36.419,36.419,0,0,0-5.853.522,41.652,41.652,0,0,1-2.686,5.817,14.881,14.881,0,0,1-2.513,3.227,1.27,1.27,0,0,0,.162.743,1.967,1.967,0,0,0,1.313.831Z" transform="translate(-275.219 -300.924)" fill="#c48281"/>
      <path id="Path_2138" data-name="Path 2138" d="M346.544,203a28.512,28.512,0,0,0,.4-19.626,10.8,10.8,0,0,0-3.325-5.2c-2.084-1.538-4.779-1.516-7.291-1.437a11.465,11.465,0,0,0-3.947.592,4.3,4.3,0,0,0-2.606,3c-1.644-.332-3.3,1.087-3.745,2.851a6.435,6.435,0,0,0,1.159,5.132,13.841,13.841,0,0,0,3.862,3.439,4.643,4.643,0,0,0-1.8,2.652,4.543,4.543,0,0,0,.2,3.094,3.825,3.825,0,0,0-3.526,2.749,5.6,5.6,0,0,0,.852,4.685,6.875,6.875,0,0,0,3.781,2.59,11.841,11.841,0,0,0,4.516.265c1.559,1.653,4.415,1.618,6.374.592A11.86,11.86,0,0,0,346.544,203Z" transform="translate(-303.331 -176.705)" fill="#263238"/>
      <path id="Path_2139" data-name="Path 2139" d="M322.108,226.8h-.384c-2.565.031-5.813,1.945-7.4,6.842l-6.164,13.066,7.037,3.412,3.85-12.332Z" transform="translate(-292.852 -204.657)" fill="#c48281"/>
      <path id="Path_2140" data-name="Path 2140" d="M319.024,240.812a19,19,0,0,0-.6,4.862,14.022,14.022,0,0,1-.933,5.052,3.95,3.95,0,0,0-5.074.2,4.3,4.3,0,0,0-1.139,1.768l5.777,2.8,3.85-12.332,1.895-6.8A7.65,7.65,0,0,0,319.024,240.812Z" transform="translate(-294.711 -209.997)" fill="#ab6160"/>
      <path id="Path_2141" data-name="Path 2141" d="M314.449,270.628a3.936,3.936,0,0,0-7.1-1.048,3.658,3.658,0,0,0-.162,3.594,4,4,0,0,0,4.694,2.431A4.2,4.2,0,0,0,314.449,270.628Z" transform="translate(-292.039 -227.515)" fill="#c48281"/>
      <path id="Path_2142" data-name="Path 2142" d="M335.773,226.059c-2.715.473-4.4,7.987-5.28,10.843-.913,2.948.327,5.088,1.709,6.869h0a3.252,3.252,0,0,1,.634,2.36L330,257.743c7.8,6.334,20.868,3.267,24.415,1.2a29.61,29.61,0,0,0-2.29-11.758,20.856,20.856,0,0,1-1.729-7.607l-.133-4.261.941-7.355-6.77-1.768-5.966-.292a21.717,21.717,0,0,0-2.694.159Z" transform="translate(-305.869 -204.154)" fill="#006f69"/>
      <path id="Path_2143" data-name="Path 2143" d="M335.773,226.059c-2.715.473-4.4,7.987-5.28,10.843-.913,2.948.327,5.088,1.709,6.869h0a3.252,3.252,0,0,1,.634,2.36L330,257.743c7.8,6.334,20.868,3.267,24.415,1.2a29.61,29.61,0,0,0-2.29-11.758,20.856,20.856,0,0,1-1.729-7.607l-.133-4.261.941-7.355-6.77-1.768-5.966-.292a21.717,21.717,0,0,0-2.694.159Z" transform="translate(-305.869 -204.154)" opacity="0.4"/>
      <g id="Group_284" data-name="Group 284" transform="translate(17.746 41.566)">
        <path id="Path_2144" data-name="Path 2144" d="M326.291,284.628h0v-.155h0l-4.605-9.384v-.08l-.02-.031v-.031l-.04-.062-.024-.027-.02-.031v-.066h0l-.069-.066h-.1l-.028-.022h-.032l-6.027-3.934h-.4a.12.12,0,0,0-.081.035l-.63.791h.02c-.052.044-.056.137.02.292l4.605,9.384a3.1,3.1,0,0,0,1.018,1.052l5.3,3.262c.271.168.436.172.461.049v.053h0l.634-.791a.1.1,0,0,0,0-.035.082.082,0,0,0,0-.031ZM314.35,271.4h0Zm6.059,3.744c.048.044.1.088.145.137h0a.836.836,0,0,0-.133-.137Zm.331.354.065.075h0Zm4.916,9.941a.551.551,0,0,0-.056-.19.581.581,0,0,1,.056.172h0S325.653,285.415,325.657,285.442Z" transform="translate(-314.195 -270.74)" fill="#455a64"/>
      </g>
      <path id="Path_2145" data-name="Path 2145" d="M336.308,290.119h0v-.155h0L331.7,280.58l-.7.76,4.609,9.384a.583.583,0,0,1,.057.172h0a.123.123,0,0,1-.02.106h0l.634-.791a.092.092,0,0,0,0-.035.082.082,0,0,0,0-.031Z" transform="translate(-306.465 -234.665)" fill="#fff" opacity="0.15"/>
      <path id="Path_2146" data-name="Path 2146" d="M321.636,275.032v-.053l-.02-.031v-.031l-.04-.062-.024-.027-.02-.031v-.066h0l-.069-.066h-.1l-.028-.022h-.032l-5.95-3.9h-.4a.12.12,0,0,0-.081.035l-.63.791q.044-.053.157-.027h0a1.07,1.07,0,0,1,.291.133l5.3,3.262a2.138,2.138,0,0,1,.3.217h0a3.5,3.5,0,0,1,.291.274h0a2.7,2.7,0,0,1,.25.292h0a1.734,1.734,0,0,1,.174.274l.634-.791Z" transform="translate(-296.476 -229.174)" fill="#fff" opacity="0.2"/>
      <path id="Path_2147" data-name="Path 2147" d="M351.1,232.817c-.751-1.41-1.737-2.493-3.232-2.617,0,0-2.424,1.379-2.424,7.638l.162,15.661h0c-.351.155-.7.318-1.05.477a40.124,40.124,0,0,1-9.206,3.046,8.6,8.6,0,0,0-5.809-2.157l.78,1.591c-1.478,1.039-4.823-.831-4.823-.831a6.585,6.585,0,0,0,2.9,5.848c1.794,1.2,18.9-.561,22.524-3.13,2.387-1.689,1.822-17.836,1.822-17.836A14.543,14.543,0,0,0,351.1,232.817Z" transform="translate(-303.168 -206.554)" fill="#c48281"/>
      <path id="Path_2148" data-name="Path 2148" d="M316.3,277a11.789,11.789,0,0,0-.194,1.87,7.159,7.159,0,0,0,1.648,4,1.869,1.869,0,0,0,.711.548.753.753,0,0,0,.808-.141,1.442,1.442,0,0,0,.287-.941,5.438,5.438,0,0,0-.077-1.516,2.129,2.129,0,0,0-.731-1.26,3.956,3.956,0,0,0-.925-.442,2.289,2.289,0,0,1-.808-.654Z" transform="translate(-297.59 -232.667)" fill="#c48281"/>
      <path id="Path_2149" data-name="Path 2149" d="M349.306,215.8v5.914a3.23,3.23,0,0,0-1.087,1.958,2.084,2.084,0,0,0,.965,1.843,2.427,2.427,0,0,0,1.987.212,4.459,4.459,0,0,0,1.757-1.114A8.336,8.336,0,0,0,355.272,219v-6Z" transform="translate(-316.728 -196.957)" fill="#c48281"/>
      <path id="Path_2150" data-name="Path 2150" d="M356.646,213c-.565,3.253-1.725,6.073-5.736,7.072v-4.3Z" transform="translate(-318.333 -196.957)" fill="#ab6160"/>
      <path id="Path_2151" data-name="Path 2151" d="M346.163,195.914a7.022,7.022,0,0,0,0,1.569,1.912,1.912,0,0,0,.513,1.025,1.006,1.006,0,0,0,.978.27,2.073,2.073,0,0,1,1.3-2.447,1.844,1.844,0,0,1,2.291,1.315,2.758,2.758,0,0,1-.311,2.144,4.615,4.615,0,0,1-1.507,1.494,1.515,1.515,0,0,1-1.915-.725c-1.725,2.6-4.823,4.637-7.8,4.5a4,4,0,0,1-2.291-.769c-1.155-.884-1.293-2.329-1.486-3.744a21.775,21.775,0,0,1-.166-5.4,11,11,0,0,1,2.876-6.63A9.773,9.773,0,0,0,346.163,195.914Z" transform="translate(-309.251 -183.292)" fill="#c48281"/>
      <path id="Path_2152" data-name="Path 2152" d="M343.431,204.5l-1.931,2.833,1.919.628Z" transform="translate(-312.724 -192.214)" fill="#ab6160"/>
      <path id="Path_2153" data-name="Path 2153" d="M348.363,215.18l-1.563.619a.946.946,0,0,0,1.095.477,1,1,0,0,0,.469-1.1Z" transform="translate(-315.883 -198.173)" fill="#ab6160"/>
      <path id="Path_2154" data-name="Path 2154" d="M348.363,215.18l-1.563.619a.946.946,0,0,0,1.095.477,1,1,0,0,0,.469-1.1Z" transform="translate(-315.883 -198.173)" opacity="0.3"/>
      <path id="Path_2155" data-name="Path 2155" d="M348.22,216.619a.842.842,0,0,0,.521,0,.892.892,0,0,0,.477-.809.916.916,0,0,0-1,.8Z" transform="translate(-316.729 -198.521)" fill="#ab6160"/>
      <path id="Path_2156" data-name="Path 2156" d="M351.591,204.729a.622.622,0,0,1-.35.572.531.531,0,0,1-.617-.136.662.662,0,0,1-.12-.676.567.567,0,0,1,.525-.379.538.538,0,0,1,.4.182A.646.646,0,0,1,351.591,204.729Z" transform="translate(-318.064 -191.996)" fill="#263238"/>
      <path id="Path_2157" data-name="Path 2157" d="M339.855,204.213a.57.57,0,1,1-.57-.623A.6.6,0,0,1,339.855,204.213Z" transform="translate(-311.067 -191.706)" fill="#263238"/>
      <path id="Path_2158" data-name="Path 2158" d="M338.272,199.225l-1.256.941a.937.937,0,0,1,.25-.968A.884.884,0,0,1,338.272,199.225Z" transform="translate(-310.025 -189.175)" fill="#263238"/>
      <path id="Path_2159" data-name="Path 2159" d="M352.16,199.11l1.248.955a.939.939,0,0,0-.238-.972A.888.888,0,0,0,352.16,199.11Z" transform="translate(-319.078 -189.113)" fill="#263238"/>
    </g>
  </g>
</svg>
